<?xml version="1.0" encoding="UTF-8" standalone="no"?>
<!-- Created with Inkscape (http://www.inkscape.org/) -->

<svg
   xmlns:dc="http://purl.org/dc/elements/1.1/"
   xmlns:cc="http://creativecommons.org/ns#"
   xmlns:rdf="http://www.w3.org/1999/02/22-rdf-syntax-ns#"
   xmlns:svg="http://www.w3.org/2000/svg"
   xmlns="http://www.w3.org/2000/svg"
   xmlns:xlink="http://www.w3.org/1999/xlink"
   xmlns:sodipodi="http://sodipodi.sourceforge.net/DTD/sodipodi-0.dtd"
   xmlns:inkscape="http://www.inkscape.org/namespaces/inkscape"
   width="210mm"
   height="297mm"
   viewBox="0 0 744.09448819 1052.3622047"
   id="svg2"
   version="1.1"
   inkscape:version="0.91 r13725"
   sodipodi:docname="ken.svg">
  <defs
     id="defs4">
    <linearGradient
       inkscape:collect="always"
       id="linearGradient4485">
      <stop
         style="stop-color:#ff0000;stop-opacity:1"
         offset="0"
         id="stop4487" />
      <stop
         style="stop-color:#000000;stop-opacity:1"
         offset="1"
         id="stop4489" />
    </linearGradient>
    <linearGradient
       inkscape:collect="always"
       id="linearGradient4477">
      <stop
         style="stop-color:#d40000;stop-opacity:1;"
         offset="0"
         id="stop4479" />
      <stop
         style="stop-color:#000000;stop-opacity:1"
         offset="1"
         id="stop4481" />
    </linearGradient>
    <clipPath
       id="clipEmfPath1"
       clipPathUnits="userSpaceOnUse">
      <path
         inkscape:connector-curvature="0"
         id="path3341"
         d="m -1.25029,-1.25029 176.29029,0 0,425.09729 -176.29029,0 z" />
    </clipPath>
    <pattern
       y="0"
       x="0"
       height="6"
       width="6"
       patternUnits="userSpaceOnUse"
       id="EMFhbasepattern" />
    <radialGradient
       inkscape:collect="always"
       xlink:href="#linearGradient4477"
       id="radialGradient4483"
       cx="655.32661"
       cy="289.95029"
       fx="655.32661"
       fy="289.95029"
       r="13.240585"
       gradientTransform="matrix(0.99999446,0,0,1.1087803,-148.56762,-30.808838)"
       gradientUnits="userSpaceOnUse" />
    <radialGradient
       inkscape:collect="always"
       xlink:href="#linearGradient4485"
       id="radialGradient4491"
       cx="734.38468"
       cy="288.98677"
       fx="734.38468"
       fy="288.98677"
       r="12.21212"
       gradientTransform="matrix(0.99999446,0,0,1.1950656,-148.56762,-55.642222)"
       gradientUnits="userSpaceOnUse" />
  </defs>
  <sodipodi:namedview
     id="base"
     pagecolor="#ffffff"
     bordercolor="#666666"
     borderopacity="1.0"
     inkscape:pageopacity="0.0"
     inkscape:pageshadow="2"
     inkscape:zoom="0.35"
     inkscape:cx="556.64396"
     inkscape:cy="583.42627"
     inkscape:document-units="px"
     inkscape:current-layer="layer1"
     showgrid="false"
     inkscape:window-width="1366"
     inkscape:window-height="706"
     inkscape:window-x="-8"
     inkscape:window-y="-8"
     inkscape:window-maximized="1"
     showguides="true"
     inkscape:guide-bbox="true">
    <sodipodi:guide
       position="28.571429,1005.7143"
       orientation="0,1"
       id="guide4679" />
    <sodipodi:guide
       position="-360,57.142858"
       orientation="0,1"
       id="guide4681" />
    <sodipodi:guide
       position="725.71429,545.7143"
       orientation="0,1"
       id="guide5969" />
  </sodipodi:namedview>
  <metadata
     id="metadata7">
    <rdf:RDF>
      <cc:Work
         rdf:about="">
        <dc:format>image/svg+xml</dc:format>
        <dc:type
           rdf:resource="http://purl.org/dc/dcmitype/StillImage" />
        <dc:title></dc:title>
      </cc:Work>
    </rdf:RDF>
  </metadata>
  <g
     inkscape:label="Layer 1"
     inkscape:groupmode="layer"
     id="layer1">
    <g
       id="g5851">
      <path
         style="fill:#c59251;fill-opacity:1;fill-rule:evenodd;stroke:none"
         d="m 226.7834,982.13627 -20.69643,9.31995 -28.40943,-11.42828 -12.21203,-15.47406 -2.31395,-38.15536 7.58436,-38.33078 0.77137,-51.69422 -6.81316,3.16364 -3.08519,17.5847 2.314,50.63895 -0.77138,54.68239 -9.25556,22.85902 -19.15385,1.93509 -18.38244,-0.87977 -13.11212,-8.26469 -4.627631,-25.84719 4.627631,-26.90245 -1.54257,-35.16484 -9.126918,-46.41999 -9.255558,-48.70601 -5.39901,-39.21066 4.627694,-51.69423 32.265922,-118.8604 -33.037178,120.97099 -5.784787,19.86861 -8.612723,-4.04353 -9.127029,-7.03384 -9.126989,-11.77941 -5.656189,-10.37527 -6.427434,-8.7913 -2.570946,-12.30806 1.285443,-10.54855 -1.285443,-11.07738 1.285443,-15.29857 L 51.056613,601.8142 69.5678,552.23067 91.678257,484.53578 106.3329,456.22698 86.407667,412.79746 76.380962,375.51974 71.881687,346.68444 68.025239,317.67136 67.253813,287.7808 69.5678,265.97803 l 6.813162,-42.37516 11.569276,-41.32025 -7.713017,-16.52807 -4.242036,-23.73723 0.899795,-19.86873 1.028554,-19.34137 3.727789,-20.923831 7.841477,-15.29748 8.9985,-12.132263 10.02695,-4.044053 9.51262,0 7.45571,2.813251 10.28406,8.264115 5.14194,13.363013 8.35573,25.847088 21.46761,-4.043902 11.44086,-0.176217 10.41252,1.758248 14.26916,4.571761 9.5117,5.2747 9.12844,8.26427 8.99845,9.31886 4.36922,9.31906 3.98596,16.35233 4.62753,-14.41812 8.35525,-13.01152 12.08457,-5.80231 9.12675,0.52698 10.28323,6.85742 8.74179,9.4948 7.45542,17.40743 5.91395,20.57213 0.89985,17.58313 0.89984,20.92393 -3.08612,14.59376 -4.62752,15.12152 -3.08449,9.31907 -3.08612,8.264 -5.14078,5.80242 -7.19875,3.51671 5.39901,30.94545 1.54146,33.23205 -1.54146,28.83749 -2.31453,32.00119 -4.49922,26.90246 -6.17067,27.95546 -9.25504,21.62818 -12.98278,22.68118 -19.15496,20.7484 24.93904,92.31117 3.47108,14.59423 12.98266,28.48428 3.08618,16.52943 0.77156,10.37302 -0.38619,12.30816 -5.78402,16.52714 -13.75596,23.73869 -7.71201,7.03169 -10.02658,4.3967 1.54145,-20.74834 -4.62759,-59.78118 -23.00929,-102.33547 14.6541,56.79526 6.04232,40.26369 5.39901,64.17792 2.18463,38.15525 -1.28479,18.64001 -5.14242,21.09937 3.85605,18.10895 0.38617,13.89224 0,10.90183 -4.62758,37.27547 -11.44132,49.58364 2.31295,39.21067 -3.08443,17.5824 z"
         id="path3344"
         inkscape:connector-curvature="0" />
      <path
         style="fill:none;stroke:#8e430b;stroke-width:1.64100027px;stroke-linecap:butt;stroke-linejoin:round;stroke-miterlimit:4;stroke-dasharray:none;stroke-opacity:1"
         clip-path="url(#clipEmfPath1)"
         d="m 119.793,416.97 -12.581,4.142 -17.2696,-5.079 -7.4235,-6.877 -1.4066,-16.957 4.6104,-17.035 0.4689,-22.974 -4.1416,1.406 -1.8754,7.815 1.4066,22.505 -0.4689,24.302 -5.6263,10.159 -11.6433,0.86 -11.1744,-0.391 -7.9706,-3.673 -2.8131,-11.487 2.8131,-11.956 -0.9377,-15.628 -5.5481,-20.63 -5.6263,-21.646 -3.282,-17.426 2.8131,-22.974 19.6139,-52.824 -20.0827,53.762 -3.5165,8.83 -5.2355,-1.797 -5.5482,-3.126 -5.5481,-5.235 -3.43831,-4.611 -3.90715,-3.907 -1.56285,-5.47 0.78143,-4.688 -0.78143,-4.923 0.78143,-6.799 9.29898,-14.691 11.2526,-22.036 13.4406,-30.085 8.9083,-12.581 -12.1122,-19.301 -6.0951,-16.567 -2.735,-12.815 -2.3443,-12.894 -0.4689,-13.284 1.4066,-9.6896 4.1416,-18.8324 7.0328,-18.3636 -4.6886,-7.3454 -2.5787,-10.5493 0.547,-8.8301 0.6252,-8.5957 2.2661,-9.299 4.7667,-6.7985 5.47,-5.39183 6.0952,-1.79728 5.7826,0 4.5322,1.25028 6.2515,3.67272 3.1257,5.93881 5.0793,11.487 13.0498,-1.7972 6.9547,-0.0782 6.3296,0.7814 8.674,2.0318 5.782,2.3442 5.549,3.6728 5.47,4.1415 2.656,4.1416 2.423,7.2673 2.813,-6.4077 5.079,-5.7826 7.346,-2.5787 5.548,0.2344 6.251,3.0476 5.314,4.2197 4.532,7.7362 3.595,9.1427 0.547,7.8143 0.547,9.299 -1.876,6.4858 -2.813,6.7203 -1.875,4.1416 -1.876,3.6727 -3.125,2.5787 -4.376,1.5629 3.282,13.7528 0.937,14.769 -0.937,12.816 -1.407,14.222 -2.735,11.956 -3.751,12.424 -5.626,9.612 -7.892,10.08 -11.644,9.221 15.16,41.025 2.11,6.486 7.892,12.659 1.876,7.346 0.469,4.61 -0.235,5.47 -3.516,7.345 -8.362,10.55 -4.688,3.125 -6.095,1.954 0.937,-9.221 -2.813,-26.568 -13.987,-45.48 8.908,25.241 3.673,17.894 3.282,28.522 1.328,16.957 -0.781,8.284 -3.126,9.377 2.344,8.048 0.235,6.174 0,4.845 -2.813,16.566 -6.955,22.036 1.406,17.426 -1.875,7.814 z"
         id="path3346"
         inkscape:connector-curvature="0"
         transform="matrix(1.6450534,0,0,2.2501198,29.717532,43.903833)" />
      <path
         style="fill:#f9dabd;fill-opacity:1;fill-rule:evenodd;stroke:none"
         d="m 133.97096,191.24999 c -13.36921,0 -24.16733,14.76976 -24.16733,33.05629 l 0,132.22468 c 0,18.28668 10.79812,33.05655 24.16733,33.05655 l 105.02524,0 c 13.36773,0 24.16587,-14.76987 24.16587,-33.05655 l 0,-132.22468 c 0,-18.28653 -10.79814,-33.05629 -24.16587,-33.05629 z"
         id="path3348"
         inkscape:connector-curvature="0" />
      <path
         style="fill:none;stroke:#f9dabd;stroke-width:6.4647336px;stroke-linecap:butt;stroke-linejoin:round;stroke-miterlimit:4;stroke-dasharray:none;stroke-opacity:1"
         d="m 133.97096,191.24999 c -13.36921,0 -24.16733,14.76976 -24.16733,33.05629 l 0,132.22468 c 0,18.28668 10.79812,33.05655 24.16733,33.05655 l 105.02524,0 c 13.36773,0 24.16587,-14.76987 24.16587,-33.05655 l 0,-132.22468 c 0,-18.28653 -10.79814,-33.05629 -24.16587,-33.05629 z"
         id="path3350"
         inkscape:connector-curvature="0" />
      <path
         style="fill:#deac8b;fill-opacity:1;fill-rule:evenodd;stroke:none"
         d="m 225.88355,304.31018 c -10.02659,0 -17.9969,2.46165 -17.9969,5.62525 0,2.99045 7.97031,5.45211 17.9969,5.45211 9.89823,0 17.99683,-2.46166 17.99683,-5.45211 0,-3.1636 -8.0986,-5.62525 -17.99683,-5.62525 z"
         id="path3352"
         inkscape:connector-curvature="0" />
      <path
         style="fill:none;stroke:#dca988;stroke-width:6.4647336px;stroke-linecap:butt;stroke-linejoin:round;stroke-miterlimit:4;stroke-dasharray:none;stroke-opacity:1"
         d="m 225.88355,304.31018 c -10.02659,0 -17.9969,2.46165 -17.9969,5.62525 0,2.99045 7.97031,5.45211 17.9969,5.45211 9.89823,0 17.99683,-2.46166 17.99683,-5.45211 0,-3.1636 -8.0986,-5.62525 -17.99683,-5.62525"
         id="path3354"
         inkscape:connector-curvature="0" />
      <path
         style="fill:#deac8b;fill-opacity:1;fill-rule:evenodd;stroke:none"
         d="m 137.95592,306.06749 c -9.89828,0 -17.99688,2.4617 -17.99688,5.44987 0,2.99041 8.0986,5.45195 17.99688,5.45195 9.89829,0 17.99689,-2.46154 17.99689,-5.45195 0,-2.98817 -8.0986,-5.44987 -17.99689,-5.44987 z"
         id="path3356"
         inkscape:connector-curvature="0" />
      <path
         style="fill:none;stroke:#dca988;stroke-width:6.4647336px;stroke-linecap:butt;stroke-linejoin:round;stroke-miterlimit:4;stroke-dasharray:none;stroke-opacity:1"
         d="m 137.95592,306.06749 c -9.89828,0 -17.99688,2.4617 -17.99688,5.44987 0,2.99041 8.0986,5.45195 17.99688,5.45195 9.89829,0 17.99689,-2.46154 17.99689,-5.45195 0,-2.98817 -8.0986,-5.44987 -17.99689,-5.44987"
         id="path3358"
         inkscape:connector-curvature="0" />
      <path
         style="fill:#493918;fill-opacity:1;fill-rule:evenodd;stroke:none"
         d="m 190.5325,312.74811 -19.28233,0.87983 -21.46779,0.87983 -23.78156,0.52614 5.39907,6.1541 -17.99689,4.74778 4.88482,5.09874 -19.539392,13.53896 8.998382,0.52861 15.04029,-2.28607 -19.66798,9.84652 -6.298921,4.04342 -2.313927,6.68281 0.642706,6.15411 16.068732,-8.96898 -16.068732,10.90183 0.642727,5.62761 5.913315,0.87758 9.12709,-0.87758 -10.28406,12.13262 -4.113449,5.27428 -1.928329,7.03389 3.213772,5.09874 6.041796,0 8.35572,0 -8.35572,15.47182 -1.92817,10.37531 9.64117,-5.09879 -9.25557,6.50518 0.64273,6.15406 2.57105,5.62525 6.04179,-8.43792 -5.78485,7.38486 -2.31374,6.50517 0.385,4.74762 3.34231,1.58193 2.82818,-0.17517 4.49923,2.4616 11.8264,-9.84656 -11.8264,9.3178 -2.57112,3.8702 -1.92811,1.7573 -0.64289,10.90184 5.78479,10.72628 8.61272,4.21902 1.02844,8.44023 5.39913,6.154 8.35572,1.93284 9.38404,-0.52614 6.6845,-3.34148 -1.54256,-9.84646 1.15696,9.67098 3.98498,4.39674 5.01347,0.87758 8.09861,-5.97632 7.713,-6.50738 7.1987,5.80309 6.81304,-1.93509 7.58464,-2.6372 1.41309,-5.97852 5.39907,3.34144 6.81386,-1.9329 6.5555,-10.90183 6.04226,2.28611 6.29891,-9.31994 -9.51333,-22.33022 5.01417,-20.5728 11.31303,-34.98942 3.59937,-33.76074 -5.78572,-13.71456 8.99851,-7.91142 -17.22541,-13.1879 2.6996,-2.11068 -13.11277,-5.97852 3.59943,-6.50508 -17.61035,-2.63714 -14.52628,1.75726 z"
         id="path3360"
         inkscape:connector-curvature="0" />
      <path
         style="fill:none;stroke:#493918;stroke-width:3.15719533px;stroke-linecap:butt;stroke-linejoin:round;stroke-miterlimit:4;stroke-dasharray:none;stroke-opacity:1"
         d="m 190.5325,312.74811 -19.28233,0.87983 -21.46779,0.87983 -23.78156,0.52614 5.39907,6.1541 -17.99689,4.74778 4.88482,5.09874 -19.539392,13.53896 8.998382,0.52861 15.04029,-2.28607 -19.66798,9.84652 -6.298921,4.04342 -2.313927,6.68281 0.642706,6.15411 16.068732,-8.96898 -16.068732,10.90183 0.642727,5.62761 5.913315,0.87758 9.12709,-0.87758 -10.28406,12.13262 -4.113449,5.27428 -1.928329,7.03389 3.213772,5.09874 6.041796,0 8.35572,0 -8.35572,15.47182 -1.92817,10.37531 9.64117,-5.09879 -9.25557,6.50518 0.64273,6.15406 2.57105,5.62525 6.04179,-8.43792 -5.78485,7.38486 -2.31374,6.50517 0.385,4.74762 3.34231,1.58193 2.82818,-0.17517 4.49923,2.4616 11.8264,-9.84656 -11.8264,9.3178 -2.57112,3.8702 -1.92811,1.7573 -0.64289,10.90184 5.78479,10.72628 8.61272,4.21902 1.02844,8.44023 5.39913,6.154 8.35572,1.93284 9.38404,-0.52614 6.6845,-3.34148 -1.54256,-9.84646 1.15696,9.67098 3.98498,4.39674 5.01347,0.87758 8.09861,-5.97632 7.713,-6.50738 7.1987,5.80309 6.81304,-1.93509 7.58464,-2.6372 1.41309,-5.97852 5.39907,3.34144 6.81386,-1.9329 6.5555,-10.90183 6.04226,2.28611 6.29891,-9.31994 -9.51333,-22.33022 5.01417,-20.5728 11.31303,-34.98942 3.59937,-33.76074 -5.78572,-13.71456 8.99851,-7.91142 -17.22541,-13.1879 2.6996,-2.11068 -13.11277,-5.97852 3.59943,-6.50508 -17.61035,-2.63714 -14.52628,1.75726 z"
         id="path3362"
         inkscape:connector-curvature="0" />
      <path
         style="fill:#4e4220;fill-opacity:1;fill-rule:evenodd;stroke:none"
         d="m 141.04106,276.00144 c -7.32723,0 -13.24049,6.50513 -13.24049,14.59199 0,8.0892 5.91326,14.76981 13.24049,14.76981 7.3274,0 13.24053,-6.68061 13.24053,-14.76981 0,-8.08686 -5.91313,-14.59199 -13.24053,-14.59199 z"
         id="path3364"
         inkscape:connector-curvature="0" />
      <path
         style="fill:none;stroke:#000000;stroke-width:2.40548229px;stroke-linecap:butt;stroke-linejoin:round;stroke-miterlimit:4;stroke-dasharray:none;stroke-opacity:1"
         d="m 141.04106,276.00144 c -7.32723,0 -13.24049,6.50513 -13.24049,14.59199 0,8.0892 5.91326,14.76981 13.24049,14.76981 7.3274,0 13.24053,-6.68061 13.24053,-14.76981 0,-8.08686 -5.91313,-14.59199 -13.24053,-14.59199"
         id="path3366"
         inkscape:connector-curvature="0" />
      <path
         style="fill:#4e4220;fill-opacity:1;fill-rule:evenodd;stroke:none"
         d="m 220.09954,275.12161 c -6.81387,0 -12.21289,6.50518 -12.21289,14.59434 0,8.08684 5.39902,14.59423 12.21289,14.59423 6.68386,0 12.21122,-6.50739 12.21122,-14.59423 0,-8.08916 -5.52736,-14.59434 -12.21122,-14.59434 z"
         id="path3368"
         inkscape:connector-curvature="0" />
      <path
         style="fill:none;stroke:#000000;stroke-width:2.40548229px;stroke-linecap:butt;stroke-linejoin:round;stroke-miterlimit:4;stroke-dasharray:none;stroke-opacity:1"
         d="m 220.09954,275.12161 c -6.81387,0 -12.21289,6.50518 -12.21289,14.59434 0,8.08684 5.39902,14.59423 12.21289,14.59423 6.68386,0 12.21122,-6.50739 12.21122,-14.59423 0,-8.08916 -5.52736,-14.59434 -12.21122,-14.59434"
         id="path3370"
         inkscape:connector-curvature="0" />
      <path
         style="fill:#4e3d1f;fill-opacity:1;fill-rule:evenodd;stroke:none"
         d="m 246.70827,272.83544 -4.11263,-4.04406 -5.27077,-4.39559 -6.04232,-1.40681 -5.5273,-0.52704 -8.9985,0 -10.54148,2.10996 3.98597,-2.6373 -5.01417,-2.28591 1.41473,-3.8682 1.66982,-2.2859 4.62916,-0.52704 5.39906,-0.52775 4.24099,0 3.34272,0 4.62753,0.35138 3.47101,0.17622 5.39906,1.75831 3.08449,3.86815 2.05798,3.34095 2.18465,10.90137 z"
         id="path3372"
         inkscape:connector-curvature="0" />
      <path
         style="fill:none;stroke:#000000;stroke-width:2.40548229px;stroke-linecap:butt;stroke-linejoin:round;stroke-miterlimit:4;stroke-dasharray:none;stroke-opacity:1"
         d="m 246.70827,272.83544 -4.11263,-4.04406 -5.27077,-4.39559 -6.04232,-1.40681 -5.5273,-0.52704 -8.9985,0 -10.54148,2.10996 3.98597,-2.6373 -5.01417,-2.28591 1.41473,-3.8682 1.66982,-2.2859 4.62916,-0.52704 5.39906,-0.52775 4.24099,0 3.34272,0 4.62753,0.35138 3.47101,0.17622 5.39906,1.75831 3.08449,3.86815 2.05798,3.34095 2.18465,10.90137 z"
         id="path3374"
         inkscape:connector-curvature="0" />
      <path
         style="fill:#4e3d1f;fill-opacity:1;fill-rule:evenodd;stroke:none"
         d="m 119.18767,275.12161 4.37074,-4.57224 5.91332,-4.92283 6.42737,-1.4067 6.04179,-0.52704 9.8983,0 11.5695,2.2857 -4.37074,-2.9891 5.39906,-2.46166 -1.41392,-4.39585 -1.92834,-2.46155 -5.01346,-0.70326 -5.91313,-0.52781 -4.62788,0 -3.72786,0 -5.01347,0.35139 -3.8565,0.17622 -5.78466,2.1099 -3.4709,4.2199 -2.1853,3.69251 -2.31392,12.13263 z"
         id="path3376"
         inkscape:connector-curvature="0" />
      <path
         style="fill:none;stroke:#000000;stroke-width:2.40548229px;stroke-linecap:butt;stroke-linejoin:round;stroke-miterlimit:4;stroke-dasharray:none;stroke-opacity:1"
         d="m 119.18767,275.12161 4.37074,-4.57224 5.91332,-4.92283 6.42737,-1.4067 6.04179,-0.52704 9.8983,0 11.5695,2.2857 -4.37074,-2.9891 5.39906,-2.46166 -1.41392,-4.39585 -1.92834,-2.46155 -5.01346,-0.70326 -5.91313,-0.52781 -4.62788,0 -3.72786,0 -5.01347,0.35139 -3.8565,0.17622 -5.78466,2.1099 -3.4709,4.2199 -2.1853,3.69251 -2.31392,12.13263 z"
         id="path3378"
         inkscape:connector-curvature="0" />
      <path
         style="fill:#493918;fill-opacity:1;fill-rule:evenodd;stroke:none"
         d="m 165.07973,312.74811 20.56795,0.87983 23.01047,0.87983 25.5806,0.52614 -5.78402,6.1541 19.28168,4.74778 -5.14077,5.09874 20.95302,13.53896 -25.83883,-1.7573 21.08301,9.84651 6.55551,6.15412 2.18464,10.37296 -17.3537,-8.6156 17.22539,10.90172 -0.77153,5.6276 -7.32706,0.5262 -8.87014,-0.5262 11.05637,12.13263 3.08449,5.27428 2.05634,4.04342 1.41473,2.99047 -0.12854,4.21891 -3.34277,0.87982 -6.55545,0 -8.87015,0 8.87015,15.47182 2.05628,10.37532 -10.28324,-5.0988 10.02659,6.50519 -0.77149,6.15406 -2.69953,5.62525 -6.55557,-8.43793 6.16898,7.38486 2.31451,5.62536 -0.25647,5.62754 -2.31458,1.9328 -4.24257,-0.5262 -4.11268,0.17517 -13.36937,-7.56033 12.72618,9.31769 2.69952,3.8702 2.05635,1.75741 0.77149,10.90177 -6.17061,10.72635 -9.38335,4.21891 -1.02819,8.44027 -5.78566,6.15406 -8.99839,1.93285 -10.02664,-0.52614 -7.19875,-3.34148 1.67139,-9.84652 -1.1565,9.67097 -4.37088,4.39681 -5.39906,0.87747 -8.74132,-5.97627 -8.22708,-6.50737 -7.71305,5.80308 -7.32734,-1.93509 -8.22709,-2.63714 -1.41409,-5.97863 -5.78466,3.34144 -7.32723,-1.93279 -6.94181,-10.90184 -6.55586,2.28612 -6.81315,-9.32 10.15541,-22.33016 -5.27059,-20.57286 -12.21223,-34.98931 -3.85632,-33.7609 6.17026,-13.71446 -9.51269,-7.91142 18.38266,-13.18799 -2.95666,-2.11059 14.14039,-5.97857 -3.8565,-6.50502 18.89673,-2.63724 15.68295,1.75736 z"
         id="path3380"
         inkscape:connector-curvature="0" />
      <path
         style="fill:none;stroke:#493918;stroke-width:3.15719533px;stroke-linecap:butt;stroke-linejoin:round;stroke-miterlimit:4;stroke-dasharray:none;stroke-opacity:1"
         d="m 165.07973,312.74811 20.56795,0.87983 23.01047,0.87983 25.5806,0.52614 -5.78402,6.1541 19.28168,4.74778 -5.14077,5.09874 20.95302,13.53896 -25.83883,-1.7573 21.08301,9.84651 6.55551,6.15412 2.18464,10.37296 -17.3537,-8.6156 17.22539,10.90172 -0.77153,5.6276 -7.32706,0.5262 -8.87014,-0.5262 11.05637,12.13263 3.08449,5.27428 2.05634,4.04342 1.41473,2.99047 -0.12854,4.21891 -3.34277,0.87982 -6.55545,0 -8.87015,0 8.87015,15.47182 2.05628,10.37532 -10.28324,-5.0988 10.02659,6.50519 -0.77149,6.15406 -2.69953,5.62525 -6.55557,-8.43793 6.16898,7.38486 2.31451,5.62536 -0.25647,5.62754 -2.31458,1.9328 -4.24257,-0.5262 -4.11268,0.17517 -13.36937,-7.56033 12.72618,9.31769 2.69952,3.8702 2.05635,1.75741 0.77149,10.90177 -6.17061,10.72635 -9.38335,4.21891 -1.02819,8.44027 -5.78566,6.15406 -8.99839,1.93285 -10.02664,-0.52614 -7.19875,-3.34148 1.67139,-9.84652 -1.1565,9.67097 -4.37088,4.39681 -5.39906,0.87747 -8.74132,-5.97627 -8.22708,-6.50737 -7.71305,5.80308 -7.32734,-1.93509 -8.22709,-2.63714 -1.41409,-5.97863 -5.78466,3.34144 -7.32723,-1.93279 -6.94181,-10.90184 -6.55586,2.28612 -6.81315,-9.32 10.15541,-22.33016 -5.27059,-20.57286 -12.21223,-34.98931 -3.85632,-33.7609 6.17026,-13.71446 -9.51269,-7.91142 18.38266,-13.18799 -2.95666,-2.11059 14.14039,-5.97857 -3.8565,-6.50502 18.89673,-2.63724 15.68295,1.75736 z"
         id="path3382"
         inkscape:connector-curvature="0" />
      <path
         style="fill:#67381a;fill-opacity:1;fill-rule:evenodd;stroke:none"
         d="m 146.183,334.90279 14.14057,0.5286 13.62613,1.93289 16.96852,-1.7573 15.55371,0.17569 -0.38502,6.50507 -1.41473,6.85836 -3.59938,7.91142 -4.49922,7.03388 -4.36998,5.45207 -3.98493,3.86794 -5.14211,4.04343 -5.39907,3.16595 -7.0701,1.7573 -6.04178,-0.52619 -6.17051,-3.51692 -3.72779,-3.69251 -3.8565,-7.56034 -1.79969,-7.20937 -1.28544,-7.38492 -0.89985,-9.31995 -0.64289,-8.26469 z"
         id="path3384"
         inkscape:connector-curvature="0" />
      <path
         style="fill:none;stroke:#000000;stroke-width:3.15719533px;stroke-linecap:butt;stroke-linejoin:round;stroke-miterlimit:4;stroke-dasharray:none;stroke-opacity:1"
         d="m 146.183,334.90279 14.14057,0.5286 13.62613,1.93289 16.96852,-1.7573 15.55371,0.17569 -0.38502,6.50507 -1.41473,6.85836 -3.59938,7.91142 -4.49922,7.03388 -4.36998,5.45207 -3.98493,3.86794 -5.14211,4.04343 -5.39907,3.16595 -7.0701,1.7573 -6.04178,-0.52619 -6.17051,-3.51692 -3.72779,-3.69251 -3.8565,-7.56034 -1.79969,-7.20937 -1.28544,-7.38492 -0.89985,-9.31995 -0.64289,-8.26469 z"
         id="path3386"
         inkscape:connector-curvature="0" />
      <path
         style="fill:#ffffff;fill-opacity:1;fill-rule:evenodd;stroke:none"
         d="m 147.33996,336.48691 4.37075,6.68056 4.49922,1.05537 8.22708,0.87983 7.58452,0.35087 8.74134,0.17517 7.58433,-0.52614 6.0418,-0.17518 6.4272,-0.5286 5.27077,-7.03393 -58.74701,-0.87753 z"
         id="path3388"
         inkscape:connector-curvature="0" />
      <path
         style="fill:none;stroke:#000000;stroke-width:2.40548229px;stroke-linecap:butt;stroke-linejoin:round;stroke-miterlimit:4;stroke-dasharray:none;stroke-opacity:1"
         d="m 147.33996,336.48691 4.37075,6.68056 4.49922,1.05537 8.22708,0.87983 7.58452,0.35087 8.74134,0.17517 7.58433,-0.52614 6.0418,-0.17518 6.4272,-0.5286 5.27077,-7.03393 -58.74701,-0.87753 z"
         id="path3390"
         inkscape:connector-curvature="0" />
      <path
         style="fill:#d6a098;fill-opacity:1;fill-rule:evenodd;stroke:none"
         d="m 154.79585,373.41131 3.4709,-4.92321 4.37057,-4.92326 5.78484,-3.16594 6.29885,-1.05532 6.55592,0 7.07027,2.63714 1.15698,5.10099 -2.69954,5.80089 -4.88482,4.04573 -3.8565,2.28381 -5.27059,1.9351 -7.45588,0 -5.14194,-2.11058 -5.39906,-5.62535 z"
         id="path3392"
         inkscape:connector-curvature="0" />
      <path
         style="fill:none;stroke:#000000;stroke-width:2.40548229px;stroke-linecap:butt;stroke-linejoin:round;stroke-miterlimit:4;stroke-dasharray:none;stroke-opacity:1"
         d="m 154.79585,373.41131 3.4709,-4.92321 4.37057,-4.92326 5.78484,-3.16594 6.29885,-1.05532 6.55592,0 7.07027,2.63714 1.15698,5.10099 -2.69954,5.80089 -4.88482,4.04573 -3.8565,2.28381 -5.27059,1.9351 -7.45588,0 -5.14194,-2.11058 -5.39906,-5.62535 z"
         id="path3394"
         inkscape:connector-curvature="0" />
      <path
         style="fill:#c59251;fill-opacity:1;fill-rule:evenodd;stroke:none"
         d="m 219.84124,168.5679 c -4.75589,6.68146 6.94216,32.7046 26.09548,58.20004 19.28333,25.49538 38.69332,40.79259 43.45083,34.11114 4.75582,-6.68156 -6.94215,-32.70465 -26.22548,-58.20009 -19.15334,-25.49542 -38.69331,-40.79264 -43.32083,-34.11109 z"
         id="path3396"
         inkscape:connector-curvature="0" />
      <path
         style="fill:none;stroke:#c59251;stroke-width:6.4647336px;stroke-linecap:butt;stroke-linejoin:round;stroke-miterlimit:4;stroke-dasharray:none;stroke-opacity:1"
         d="m 219.84124,168.5679 c -4.75589,6.68146 6.94216,32.7046 26.09548,58.20004 19.28333,25.49538 38.69332,40.79259 43.45083,34.11114 4.75582,-6.68156 -6.94215,-32.70465 -26.22548,-58.20009 -19.15334,-25.49542 -38.69331,-40.79264 -43.32083,-34.11109"
         id="path3398"
         inkscape:connector-curvature="0" />
      <path
         style="fill:#c59251;fill-opacity:1;fill-rule:evenodd;stroke:none"
         d="m 165.07973,175.42531 c -40.74994,0 -73.658591,12.83557 -73.658591,28.8363 0,15.82482 32.908651,28.83618 73.658591,28.83618 40.62229,0 73.65829,-13.01136 73.65829,-28.83618 0,-16.00073 -33.036,-28.8363 -73.65829,-28.8363 z"
         id="path3400"
         inkscape:connector-curvature="0" />
      <path
         style="fill:none;stroke:#c59251;stroke-width:6.4647336px;stroke-linecap:butt;stroke-linejoin:round;stroke-miterlimit:4;stroke-dasharray:none;stroke-opacity:1"
         d="m 165.07973,175.42531 c -40.74994,0 -73.658591,12.83557 -73.658591,28.8363 0,15.82482 32.908651,28.83618 73.658591,28.83618 40.62229,0 73.65829,-13.01136 73.65829,-28.83618 0,-16.00073 -33.036,-28.8363 -73.65829,-28.8363"
         id="path3402"
         inkscape:connector-curvature="0" />
      <path
         style="fill:#bea56e;fill-opacity:1;fill-rule:evenodd;stroke:none"
         d="m 190.5325,155.20463 c -24.80988,-5.80236 -47.43464,8.61571 -50.39129,32.17721 -2.95666,23.56122 14.91176,47.29835 39.85028,53.1008 24.81069,5.80242 47.43516,-8.61575 50.39128,-32.17698 2.82783,-23.56138 -14.91245,-47.29842 -39.85027,-53.10103 z"
         id="path3404"
         inkscape:connector-curvature="0" />
      <path
         style="fill:none;stroke:#bea56e;stroke-width:6.4647336px;stroke-linecap:butt;stroke-linejoin:round;stroke-miterlimit:4;stroke-dasharray:none;stroke-opacity:1"
         d="m 190.5325,155.20463 c -24.80988,-5.80236 -47.43464,8.61571 -50.39129,32.17721 -2.95666,23.56122 14.91176,47.29835 39.85028,53.1008 24.81069,5.80242 47.43516,-8.61575 50.39128,-32.17698 2.82783,-23.56138 -14.91245,-47.29842 -39.85027,-53.10103"
         id="path3406"
         inkscape:connector-curvature="0" />
      <path
         style="fill:none;stroke:#000000;stroke-width:3.15719533px;stroke-linecap:butt;stroke-linejoin:round;stroke-miterlimit:4;stroke-dasharray:none;stroke-opacity:1"
         d="m 220.61278,189.31604 c -11.95463,5.45065 -25.06734,-4.74752 -29.56603,-22.68234"
         id="path3408"
         inkscape:connector-curvature="0" />
      <path
         style="fill:#44361b;fill-opacity:1;fill-rule:evenodd;stroke:none"
         d="m 265.09175,284.08834 -21.98286,-33.58328 -6.81215,0.52698 -6.55722,-10.0222 -9.76998,1.93399 -10.28319,3.16501 -8.35525,2.63735 -4.24263,2.28585 -5.27036,-1.05505 -0.77136,-5.45066 2.05681,-7.9123 -9.38404,11.42901 -4.24228,4.74731 -5.14194,1.75845 -4.37057,-1.75845 -2.95667,-4.2199 2.57089,-8.08822 1.67122,-4.92336 -5.01346,14.94583 -11.69799,-0.52786 -37.02209,10.54997 3.47072,-5.09906 -3.98497,5.45075 -6.42738,3.51666 -2.82819,-0.52782 -2.44236,-3.86809 0,-8.08832 5.27055,-9.84657 8.22707,-7.56059 -8.4842,7.0332 -5.52771,10.90136 -6.170201,0.52782 -6.556044,0.52697 -3.085133,-1.9342 -0.514127,-5.97805 3.856509,-10.02258 6.041776,-5.97809 4.37069,-4.39582 5.142,-4.0441 7.32718,4.0441 -8.61279,-4.0441 1.92834,-7.91236 5.399,-4.5715 5.27048,-2.46165 7.1987,-2.46166 11.05532,4.3956 3.85643,1.58255 -12.85493,-4.57165 2.69952,-8.96737 4.37081,-7.9123 4.75634,-2.46161 4.49917,-2.10995 4.88482,0.7032 6.42738,0.35138 3.34242,2.98926 -1.02848,5.97811 0.77138,-3.86821 3.98502,-1.58255 4.6277,1.05516 7.58447,1.4065 -6.29891,-4.39587 -2.31394,-4.04405 6.17044,-0.87915 28.15148,3.86842 6.29892,8.96741 -7.32706,-11.95668 6.04225,-0.87915 6.04225,0.35139 4.37093,2.63756 6.04067,4.2199 4.37087,4.57156 5.27076,8.08831 2.31459,4.3956 5.14077,3.51676 8.09859,4.92321 5.01419,5.099 4.88417,6.85746 3.59938,8.96742 3.47102,10.54991 0.89983,28.309 -0.51353,10.19753 z"
         id="path3410"
         inkscape:connector-curvature="0" />
      <path
         style="fill:none;stroke:#000000;stroke-width:2.40548229px;stroke-linecap:butt;stroke-linejoin:round;stroke-miterlimit:4;stroke-dasharray:none;stroke-opacity:1"
         d="m 265.09175,284.08834 -21.98286,-33.58328 -6.81215,0.52698 -6.55722,-10.0222 -9.76998,1.93399 -10.28319,3.16501 -8.35525,2.63735 -4.24263,2.28585 -5.27036,-1.05505 -0.77136,-5.45066 2.05681,-7.9123 -9.38404,11.42901 -4.24228,4.74731 -5.14194,1.75845 -4.37057,-1.75845 -2.95667,-4.2199 2.57089,-8.08822 1.67122,-4.92336 -5.01346,14.94583 -11.69799,-0.52786 -37.02209,10.54997 3.47072,-5.09906 -3.98497,5.45075 -6.42738,3.51666 -2.82819,-0.52782 -2.44236,-3.86809 0,-8.08832 5.27055,-9.84657 8.22707,-7.56059 -8.4842,7.0332 -5.52771,10.90136 -6.170201,0.52782 -6.556044,0.52697 -3.085133,-1.9342 -0.514127,-5.97805 3.856509,-10.02258 6.041776,-5.97809 4.37069,-4.39582 5.142,-4.0441 7.32718,4.0441 -8.61279,-4.0441 1.92834,-7.91236 5.399,-4.5715 5.27048,-2.46165 7.1987,-2.46166 11.05532,4.3956 3.85643,1.58255 -12.85493,-4.57165 2.69952,-8.96737 4.37081,-7.9123 4.75634,-2.46161 4.49917,-2.10995 4.88482,0.7032 6.42738,0.35138 3.34242,2.98926 -1.02848,5.97811 0.77138,-3.86821 3.98502,-1.58255 4.6277,1.05516 7.58447,1.4065 -6.29891,-4.39587 -2.31394,-4.04405 6.17044,-0.87915 28.15148,3.86842 6.29892,8.96741 -7.32706,-11.95668 6.04225,-0.87915 6.04225,0.35139 4.37093,2.63756 6.04067,4.2199 4.37087,4.57156 5.27076,8.08831 2.31459,4.3956 5.14077,3.51676 8.09859,4.92321 5.01419,5.099 4.88417,6.85746 3.59938,8.96742 3.47102,10.54991 0.89983,28.309 -0.51353,10.19753 z"
         id="path3412"
         inkscape:connector-curvature="0" />
      <path
         style="fill:#000000;fill-opacity:1;fill-rule:evenodd;stroke:none"
         d="m 224.85535,134.80841 c -3.72768,0 -6.81379,4.92331 -6.81379,10.90141 0,5.97836 3.08611,10.72561 6.81379,10.72561 3.72773,0 6.81216,-4.74725 6.81216,-10.72561 0,-5.9781 -3.08443,-10.90141 -6.81216,-10.90141 z"
         id="path3414"
         inkscape:connector-curvature="0" />
      <path
         style="fill:none;stroke:#000000;stroke-width:2.40548229px;stroke-linecap:butt;stroke-linejoin:round;stroke-miterlimit:4;stroke-dasharray:none;stroke-opacity:1"
         d="m 224.85535,134.80841 c -3.72768,0 -6.81379,4.92331 -6.81379,10.90141 0,5.97836 3.08611,10.72561 6.81379,10.72561 3.72773,0 6.81216,-4.74725 6.81216,-10.72561 0,-5.9781 -3.08443,-10.90141 -6.81216,-10.90141"
         id="path3416"
         inkscape:connector-curvature="0" />
      <path
         style="fill:#000000;fill-opacity:1;fill-rule:evenodd;stroke:none"
         d="m 162.76597,120.03864 c -3.8565,0 -6.81316,4.92331 -6.81316,10.90136 0,5.97836 2.95666,10.72566 6.81316,10.72566 3.72779,0 6.68451,-4.7473 6.68451,-10.72566 0,-5.97805 -2.95672,-10.90136 -6.68451,-10.90136 z"
         id="path3418"
         inkscape:connector-curvature="0" />
      <path
         style="fill:none;stroke:#000000;stroke-width:2.40548229px;stroke-linecap:butt;stroke-linejoin:round;stroke-miterlimit:4;stroke-dasharray:none;stroke-opacity:1"
         d="m 162.76597,120.03864 c -3.8565,0 -6.81316,4.92331 -6.81316,10.90136 0,5.97836 2.95666,10.72566 6.81316,10.72566 3.72779,0 6.68451,-4.7473 6.68451,-10.72566 0,-5.97805 -2.95672,-10.90136 -6.68451,-10.90136"
         id="path3420"
         inkscape:connector-curvature="0" />
      <path
         style="fill:#504f33;fill-opacity:1;fill-rule:evenodd;stroke:none"
         d="m 190.78956,171.2053 -8.61278,-17.40716 20.43911,3.69235 z"
         id="path3422"
         inkscape:connector-curvature="0" />
      <path
         style="fill:none;stroke:#000000;stroke-width:2.40548229px;stroke-linecap:butt;stroke-linejoin:miter;stroke-miterlimit:8;stroke-dasharray:none;stroke-opacity:1"
         d="m 190.78956,171.2053 -8.61278,-17.40716 20.43911,3.69235 z"
         id="path3424"
         inkscape:connector-curvature="0" />
      <path
         style="fill:#bea56e;fill-opacity:1;fill-rule:evenodd;stroke:none"
         d="m 166.49376,549.06473 c -21.33908,0 -38.69319,53.80484 -38.69319,120.26893 0,66.28845 17.35411,120.09336 38.69319,120.09336 21.46786,0 38.69331,-53.80491 38.69331,-120.09336 0,-66.46409 -17.22545,-120.26893 -38.69331,-120.26893 z"
         id="path3426"
         inkscape:connector-curvature="0" />
      <path
         style="fill:none;stroke:#bea56e;stroke-width:6.4647336px;stroke-linecap:butt;stroke-linejoin:round;stroke-miterlimit:10;stroke-dasharray:none;stroke-opacity:1"
         d="m 166.49376,549.06473 c -21.33908,0 -38.69319,53.80484 -38.69319,120.26893 0,66.28845 17.35411,120.09336 38.69319,120.09336 21.46786,0 38.69331,-53.80491 38.69331,-120.09336 0,-66.46409 -17.22545,-120.26893 -38.69331,-120.26893"
         id="path3428"
         inkscape:connector-curvature="0" />
      <path
         style="fill:none;stroke:#000000;stroke-width:3.15719533px;stroke-linecap:butt;stroke-linejoin:round;stroke-miterlimit:10;stroke-dasharray:none;stroke-opacity:1"
         d="m 191.43235,170.85376 c -8.61275,12.83562 -24.29581,12.30816 -35.09394,-1.05506"
         id="path3430"
         inkscape:connector-curvature="0" />
      <path
         style="fill:none;stroke:#8e430b;stroke-width:3.15719533px;stroke-linecap:butt;stroke-linejoin:round;stroke-miterlimit:10;stroke-dasharray:none;stroke-opacity:1"
         d="m 38.587372,683.04807 14.39757,-27.42896"
         id="path3432"
         inkscape:connector-curvature="0" />
      <path
         style="fill:none;stroke:#8e430b;stroke-width:3.15719533px;stroke-linecap:butt;stroke-linejoin:round;stroke-miterlimit:10;stroke-dasharray:none;stroke-opacity:1"
         d="M 49.385572,705.55602 68.539256,674.96111"
         id="path3434"
         inkscape:connector-curvature="0" />
      <path
         style="fill:none;stroke:#8e430b;stroke-width:3.15719533px;stroke-linecap:butt;stroke-linejoin:round;stroke-miterlimit:10;stroke-dasharray:none;stroke-opacity:1"
         d="m 263.292,661.24672 14.39752,33.93403"
         id="path3436"
         inkscape:connector-curvature="0" />
      <path
         style="fill:none;stroke:#8e430b;stroke-width:3.15719533px;stroke-linecap:butt;stroke-linejoin:round;stroke-miterlimit:10;stroke-dasharray:none;stroke-opacity:1"
         d="M 266.76145,715.7536 249.92269,675.48767"
         id="path3438"
         inkscape:connector-curvature="0" />
      <path
         inkscape:connector-curvature="0"
         id="path3499"
         d="m 154.0001,98.226944 -4.6159,0.609462 -7.5761,-25.583662 -4.7982,-12.158574 -1.26268,-1.519821 -9.5964,-7.852412 -7.5761,-3.039643 -10.60654,0 -9.5964,4.052858 -10.101474,12.411877 c 0,0 -7.828636,16.21143 -8.081175,16.718038 -0.252528,0.506607 -3.53551,20.770893 -3.53551,20.770893 l -1.76776,39.76867 4.293126,24.06385 7.576108,16.71803 -11.616696,40.02197 -2.525366,16.71804 -5.808347,36.47572 -0.757606,11.65196 0.505067,23.55724 3.282982,30.90304 4.040587,25.07706 3.282982,15.95813 8.333704,29.88982 6.565963,15.19822 9.848925,21.78411 0,4.55946 0.50508,2.02643 1.76776,1.01322 -8.838793,16.46473 -4.798193,8.61233 -12.374302,38.75544 -23.738458,68.13868 -8.081175,19.25107 -8.586242,18.74447 -3.282982,6.33258 -1.515221,14.69162 1.262683,12.15857 -1.262683,9.87884 2.777904,12.41188 3.282982,5.82598 4.545655,6.58589 4.798203,9.37224 c 0,0 -1.010144,-2.02643 0.252539,0 1.262683,2.02643 10.101463,11.90527 10.101463,11.90527 l 8.333714,7.0925 9.343858,3.79956 3.788049,-10.89206 5.555809,-18.49117 13.636985,-50.91402 16.414895,-62.56599 -33.839929,125.13199 -2.020288,8.10571 -3.030444,34.19598 0,5.31939 4.040588,31.40963 9.091319,47.11448 7.576108,38.50214 2.777896,15.70483 1.76776,33.94269 -4.545656,27.86339 4.293116,25.07706 0.50508,2.02642 13.13191,8.35902 9.59639,0.75992 11.6167,0.25331 17.67757,-2.02644 9.34386,-22.54401 0.25254,-46.86118 1.26268,-13.17178 -0.75761,-18.23787 -1.26269,-29.12991 2.77791,-15.70482 4.04058,-2.02643 -0.7576,49.3942 -4.15599,19.89574 -1.24999,56.77873 13.03564,16.12014 29.64269,12.17967 21.78559,-10.20944 3.0357,-18.62771 -2.32141,-39.22569 9.10709,-40.83769 2.32141,-8.95563 3.74998,-30.27005 0.53571,-31.70295 -3.92855,-18.44861 5.17854,-20.23973 0.89286,-18.80684 -0.71429,-16.47836 -7.14281,-85.25765 -12.32136,-61.43565 -9.10709,-36.89722 9.82137,40.12125 8.03567,39.22568 4.28569,23.64287 4.28569,55.34583 2.32142,24.89666 7.8571,-2.8658 8.39281,-7.52273 13.57134,-23.82199 5.89283,-17.19482 0.71429,-13.25435 -0.89286,-9.8512 -3.21427,-17.37392 -13.03564,-28.65803 -15.89277,-59.64454 -11.96421,-45.31551 18.03561,-19.88151 13.57135,-23.28465 9.10709,-21.85175 6.24997,-28.47892 4.8214,-28.47891 1.78571,-24.00111 1.24999,-22.03086 0.35714,-14.1499 -0.53572,-17.37393 -0.35713,-13.25435 -1.7857,-10.38853 -3.74998,-21.67263 6.07139,-2.86581 5.71425,-6.62717 9.99995,-30.09093 4.10711,-17.01572 -1.60713,-40.47946 -6.24996,-21.31441 -7.49996,-16.83659 -8.92852,-10.03031 -10.35708,-6.9854 -9.99995,-0.71645 -12.49993,6.26895 -9.1071,13.61255 -3.03569,10.20943 -3.39284,-12.17966 -4.28569,-9.8512 c 0,0 -21.60702,-22.03087 -12.49993,-10.92588 9.10709,11.10499 -6.24996,-7.34362 -6.24996,-7.34362 l -9.10709,-5.01516 -14.82135,-4.656924 -9.82138,-1.612015 -13.57135,0 z"
         style="fill:none;fill-rule:evenodd;stroke:#000000;stroke-width:1.00151157px;stroke-linecap:butt;stroke-linejoin:miter;stroke-opacity:1" />
      <path
         inkscape:connector-curvature="0"
         id="path3501"
         d="m 250.3989,676.62194 18.18264,42.3017 c 0,0 -18.43518,-42.555 -18.18264,-42.3017 z"
         style="fill:none;fill-rule:evenodd;stroke:#000000;stroke-width:1.00151157px;stroke-linecap:butt;stroke-linejoin:miter;stroke-opacity:1" />
      <path
         inkscape:connector-curvature="0"
         id="path3503"
         d="m 285.88031,715.6307 0.12627,0.5066 z"
         style="fill:none;fill-rule:evenodd;stroke:#000000;stroke-width:1.00151157px;stroke-linecap:butt;stroke-linejoin:miter;stroke-opacity:1" />
      <path
         inkscape:connector-curvature="0"
         id="path3505"
         d="m 263.78334,661.55037 15.27848,35.20921 z"
         style="fill:none;fill-rule:evenodd;stroke:#000000;stroke-width:1.00151157px;stroke-linecap:butt;stroke-linejoin:miter;stroke-opacity:1" />
      <path
         inkscape:connector-curvature="0"
         id="path3507"
         d="M 286.25911,716.01065 Z"
         style="fill:none;fill-rule:evenodd;stroke:#000000;stroke-width:1.00151157px;stroke-linecap:butt;stroke-linejoin:miter;stroke-opacity:1" />
      <path
         inkscape:connector-curvature="0"
         id="path3509"
         d="M 52.662634,656.35765 37.005351,685.74088 Z"
         style="fill:none;fill-rule:evenodd;stroke:#000000;stroke-width:1.00151157px;stroke-linecap:butt;stroke-linejoin:miter;stroke-opacity:1" />
      <path
         inkscape:connector-curvature="0"
         id="path3511"
         d="M 68.067369,675.86203 49.253383,705.87851 Z"
         style="fill:none;fill-rule:evenodd;stroke:#000000;stroke-width:1.00151157px;stroke-linecap:butt;stroke-linejoin:miter;stroke-opacity:1" />
      <path
         inkscape:connector-curvature="0"
         id="path3513"
         d="m 266.05617,284.63461 0.88389,-11.90528 -0.63135,-16.59138 -0.50508,-11.0187 -4.29311,-12.91849 -2.90418,-6.71255 -3.15671,-4.43281 -2.14656,-2.78634 -4.54566,-5.06607 -13.25818,-8.48568 -7.32357,-11.77861 -4.67192,-5.06607 -11.11162,-7.34581 -6.31342,-0.37995 -6.06088,1.01321 -3.03044,0.75991 9.59639,13.29844 -8.33371,-11.77862 -18.30891,-2.15307 -11.99549,-0.25331 -1.51522,-0.12665 -0.75762,0.63325 -0.12627,1.13988 0.88389,1.51982 1.64149,2.91298 2.27282,1.39317 -7.1973,-1.51982 -2.52536,1.01322 -1.26269,6.20594 1.38896,-6.07929 -0.37881,-1.13987 -3.91432,-3.54625 -5.68208,0 -6.06087,-1.13986 -9.84894,5.06607 -4.67192,8.48567 -2.65165,7.34581 13.76325,6.58589 -13.51071,-6.33259 -1.26268,-1.13987 -12.7531,5.19272 -6.31343,5.19274 -2.02029,8.61231 9.9752,3.67291 -9.9752,-3.67291 -3.78805,3.29295 -10.227741,10.38545 -3.914318,10.2588 0.252538,6.8392 3.788049,2.65968 12.500572,-1.01322 3.28297,-6.96584 3.66179,-5.69933 7.5761,-6.58589 -7.44983,6.58589 -3.91433,6.07928 -3.1567,6.45924 0,6.45925 2.90418,4.68611 3.66178,1.01322 7.1973,-4.05286 4.29311,-6.07929 -4.16685,6.07929 36.99663,-10.63876 11.74296,0.50662 5.80834,-16.08478 -5.55581,15.95812 0.63135,-0.2533 1.64149,2.40638 4.79819,2.02643 6.06089,-1.64647 10.73281,-12.79183 -0.75762,3.03964 0.50508,6.45925 6.81849,1.77311 4.4194,-2.53303 17.5513,-5.69933 9.9752,-1.89977 5.68207,9.24558 1.26269,0.63326 6.18715,-0.50661 15.53101,23.68388 5.93461,8.99228 1.38896,0.88656 z"
         style="fill:none;fill-rule:evenodd;stroke:#000000;stroke-width:1.00151157px;stroke-linecap:butt;stroke-linejoin:miter;stroke-opacity:1" />
      <path
         inkscape:connector-curvature="0"
         id="path3515"
         d="m 207.46766,261.96393 -2.14657,1.77313 -0.25254,1.13986 0.63135,0.88657 11.11162,-2.02643 9.59639,0 4.7982,0.50661 5.80834,1.26652 8.83878,8.23236 1.26269,0.37995 1.13641,-1.01321 -0.25253,-0.88656 -2.14657,-11.01871 -5.68207,-7.59911 -5.05074,-1.51981 -7.9549,-0.88657 -8.45999,0 -10.85908,1.01322 -2.52536,3.03963 -1.51522,4.55947 0,0.37996 0.63134,0.63326 z"
         style="fill:none;fill-rule:evenodd;stroke:#000000;stroke-width:1.00151157px;stroke-linecap:butt;stroke-linejoin:miter;stroke-opacity:1" />
      <path
         inkscape:connector-curvature="0"
         id="path3517"
         d="m 161.88477,263.10379 2.14657,2.02644 0.50507,1.13986 -0.88388,1.01321 -11.6167,-2.27972 -9.84892,-0.12666 -6.18716,0.37996 -6.06087,1.64648 -5.42954,4.4328 -4.54567,4.93943 -1.64149,0.2533 -0.7576,-1.26651 1.13641,-3.79956 2.0203,-10.00549 3.03043,-2.65969 9.34386,-3.1663 9.72267,-2.65968 4.54566,-1.26652 5.30327,-0.25331 8.96505,1.26652 3.15671,3.03965 0.75761,4.68611 z"
         style="fill:none;fill-rule:evenodd;stroke:#000000;stroke-width:1.00151157px;stroke-linecap:butt;stroke-linejoin:miter;stroke-opacity:1" />
    </g>
    <g
       id="g5911"
       transform="matrix(0.9489864,0,0,1.0000281,20.325107,-0.01465911)">
      <path
         inkscape:connector-curvature="0"
         id="path3527"
         d="m 592.49768,979.34955 -20.69643,9.29209 -28.40942,-11.39411 -12.21204,-15.42778 -2.31395,-38.04124 7.58436,-38.21614 0.77137,-51.5396 -6.81315,3.15418 -3.0852,17.5321 2.314,50.48749 -0.77138,54.51883 -9.25555,22.79066 -19.15386,1.92934 -18.38244,-0.87718 -13.11212,-8.23996 -4.62763,-25.76988 4.62763,-26.822 -1.54257,-35.05966 -9.12692,-46.28114 -9.25555,-48.56034 -5.39901,-39.09339 4.62769,-51.53962 32.26592,-118.5049 -33.03718,120.60918 -5.78479,19.80918 -8.61272,-4.03143 -9.12703,-7.01279 -9.12698,-11.74419 -5.6562,-10.34423 -6.42742,-8.76501 -2.57096,-12.27125 1.28545,-10.517 -1.28545,-11.04425 1.28545,-15.25281 15.29729,-32.9577 18.5112,-49.43523 22.11045,-67.49242 14.65464,-28.22414 -19.92523,-43.29962 -10.02671,-37.16622 -4.49927,-28.74906 -3.85645,-28.92631 -0.77143,-29.80115 2.314,-21.73756 6.81315,-42.24842 11.56928,-41.19666 -7.71302,-16.47864 -4.24204,-23.66624 0.8998,-19.8093 1.02856,-19.28353 3.72779,-20.861246 7.84147,-15.251727 8.99851,-12.095976 10.02693,-4.031958 9.51264,0 7.4557,2.804838 10.28406,8.239397 5.14194,13.323045 8.35573,25.769777 21.46761,-4.031807 11.44086,-0.175685 10.41252,1.752994 14.26916,4.558088 9.5117,5.25893 9.12844,8.23955 8.99845,9.29098 4.36922,9.2912 3.98596,16.3034 4.62754,-14.37498 8.35524,-12.97262 12.08457,-5.78494 9.12676,0.5254 10.28322,6.83691 8.74179,9.4664 7.45543,17.35538 5.91394,20.51059 0.89985,17.53054 0.89984,20.86135 -3.08612,14.55011 -4.62751,15.07629 -3.0845,9.2912 -3.08612,8.23928 -5.14078,5.78507 -7.19875,3.50618 5.39901,30.85291 1.54146,33.13264 -1.54146,28.75125 -2.31453,31.90548 -4.49921,26.822 -6.17068,27.87184 -9.25504,21.56349 -12.98278,22.61335 -19.15496,20.68634 24.93904,92.03508 3.47108,14.55058 12.98266,28.39908 3.08618,16.47999 0.77155,10.34199 -0.38618,12.27135 -5.78402,16.47771 -13.75596,23.66769 -7.71201,7.01066 -10.02658,4.38354 1.54144,-20.68627 -4.62757,-59.60238 -23.0093,-102.02939 14.65411,56.62538 6.0423,40.14326 5.39902,63.98598 2.18463,38.04114 -1.28478,18.58425 -5.14243,21.03625 3.85605,18.05479 0.38617,13.85069 0,10.86922 -4.62758,37.16399 -11.44132,49.43534 2.31295,39.0934 -3.08443,17.52981 z"
         style="fill:#c59251;fill-opacity:1;fill-rule:evenodd;stroke:none" />
      <path
         transform="matrix(1.6450534,0,0,2.2501198,395.43181,43.903833)"
         inkscape:connector-curvature="0"
         id="path3529"
         d="m 119.793,416.97 -12.581,4.142 -17.2696,-5.079 -7.4235,-6.877 -1.4066,-16.957 4.6104,-17.035 0.4689,-22.974 -4.1416,1.406 -1.8754,7.815 1.4066,22.505 -0.4689,24.302 -5.6263,10.159 -11.6433,0.86 -11.1744,-0.391 -7.9706,-3.673 -2.8131,-11.487 2.8131,-11.956 -0.9377,-15.628 -5.5481,-20.63 -5.6263,-21.646 -3.282,-17.426 2.8131,-22.974 19.6139,-52.824 -20.0827,53.762 -3.5165,8.83 -5.2355,-1.797 -5.5482,-3.126 -5.5481,-5.235 -3.43831,-4.611 -3.90715,-3.907 -1.56285,-5.47 0.78143,-4.688 -0.78143,-4.923 0.78143,-6.799 9.29898,-14.691 11.2526,-22.036 13.4406,-30.085 8.9083,-12.581 -12.1122,-19.301 -6.0951,-16.567 -2.735,-12.815 -2.3443,-12.894 -0.4689,-13.284 1.4066,-9.6896 4.1416,-18.8324 7.0328,-18.3636 -4.6886,-7.3454 -2.5787,-10.5493 0.547,-8.8301 0.6252,-8.5957 2.2661,-9.299 4.7667,-6.7985 5.47,-5.39183 6.0952,-1.79728 5.7826,0 4.5322,1.25028 6.2515,3.67272 3.1257,5.93881 5.0793,11.487 13.0498,-1.7972 6.9547,-0.0782 6.3296,0.7814 8.674,2.0318 5.782,2.3442 5.549,3.6728 5.47,4.1415 2.656,4.1416 2.423,7.2673 2.813,-6.4077 5.079,-5.7826 7.346,-2.5787 5.548,0.2344 6.251,3.0476 5.314,4.2197 4.532,7.7362 3.595,9.1427 0.547,7.8143 0.547,9.299 -1.876,6.4858 -2.813,6.7203 -1.875,4.1416 -1.876,3.6727 -3.125,2.5787 -4.376,1.5629 3.282,13.7528 0.937,14.769 -0.937,12.816 -1.407,14.222 -2.735,11.956 -3.751,12.424 -5.626,9.612 -7.892,10.08 -11.644,9.221 15.16,41.025 2.11,6.486 7.892,12.659 1.876,7.346 0.469,4.61 -0.235,5.47 -3.516,7.345 -8.362,10.55 -4.688,3.125 -6.095,1.954 0.937,-9.221 -2.813,-26.568 -13.987,-45.48 8.908,25.241 3.673,17.894 3.282,28.522 1.328,16.957 -0.781,8.284 -3.126,9.377 2.344,8.048 0.235,6.174 0,4.845 -2.813,16.566 -6.955,22.036 1.406,17.426 -1.875,7.814 z"
         clip-path="url(#clipEmfPath1)"
         style="fill:none;stroke:#8e430b;stroke-width:1.64100027px;stroke-linecap:butt;stroke-linejoin:round;stroke-miterlimit:4;stroke-dasharray:none;stroke-opacity:1" />
      <path
         inkscape:connector-curvature="0"
         id="path3531"
         d="m 497.18525,218.83335 c -13.36921,0 -24.16733,14.76977 -24.16733,33.0563 l 0,132.22467 c 0,18.28668 10.79812,33.05656 24.16733,33.05656 l 105.02524,0 c 13.36773,0 24.16587,-14.76988 24.16587,-33.05656 l 0,-132.22467 c 0,-18.28653 -10.79814,-33.0563 -24.16587,-33.0563 z"
         style="fill:#f9dabd;fill-opacity:1;fill-rule:evenodd;stroke:none" />
      <path
         inkscape:connector-curvature="0"
         id="path3533"
         d="m 499.68524,191.24999 c -13.36921,0 -24.16733,14.76977 -24.16733,33.0563 l 0,132.22468 c 0,18.28668 10.79812,33.05655 24.16733,33.05655 l 105.02524,0 c 13.36773,0 24.16587,-14.76987 24.16587,-33.05655 l 0,-132.22468 c 0,-18.28653 -10.79814,-33.0563 -24.16587,-33.0563 z"
         style="fill:none;stroke:#f9dabd;stroke-width:6.4647336px;stroke-linecap:butt;stroke-linejoin:round;stroke-miterlimit:4;stroke-dasharray:none;stroke-opacity:1" />
      <path
         inkscape:connector-curvature="0"
         id="path3535"
         d="m 591.59783,304.31019 c -10.02659,0 -17.9969,2.46165 -17.9969,5.62525 0,2.99046 7.97031,5.45211 17.9969,5.45211 9.89823,0 17.99684,-2.46165 17.99684,-5.45211 0,-3.1636 -8.09861,-5.62525 -17.99684,-5.62525 z"
         style="fill:#deac8b;fill-opacity:1;fill-rule:evenodd;stroke:none" />
      <path
         inkscape:connector-curvature="0"
         id="path3537"
         d="m 591.59783,304.31019 c -10.02659,0 -17.9969,2.46165 -17.9969,5.62525 0,2.99046 7.97031,5.45211 17.9969,5.45211 9.89823,0 17.99684,-2.46165 17.99684,-5.45211 0,-3.1636 -8.09861,-5.62525 -17.99684,-5.62525"
         style="fill:none;stroke:#dca988;stroke-width:6.4647336px;stroke-linecap:butt;stroke-linejoin:round;stroke-miterlimit:4;stroke-dasharray:none;stroke-opacity:1" />
      <path
         inkscape:connector-curvature="0"
         id="path3539"
         d="m 503.6702,306.0675 c -9.89829,0 -17.99688,2.4617 -17.99688,5.44987 0,2.9904 8.09859,5.45196 17.99688,5.45196 9.89829,0 17.9969,-2.46156 17.9969,-5.45196 0,-2.98817 -8.09861,-5.44987 -17.9969,-5.44987 z"
         style="fill:#deac8b;fill-opacity:1;fill-rule:evenodd;stroke:none" />
      <path
         inkscape:connector-curvature="0"
         id="path3541"
         d="m 503.6702,306.0675 c -9.89829,0 -17.99688,2.4617 -17.99688,5.44987 0,2.9904 8.09859,5.45196 17.99688,5.45196 9.89829,0 17.9969,-2.46156 17.9969,-5.45196 0,-2.98817 -8.09861,-5.44987 -17.9969,-5.44987"
         style="fill:none;stroke:#dca988;stroke-width:6.4647336px;stroke-linecap:butt;stroke-linejoin:round;stroke-miterlimit:4;stroke-dasharray:none;stroke-opacity:1" />
      <path
         inkscape:connector-curvature="0"
         id="path3543"
         d="m 556.24678,312.74812 -19.28233,0.87983 -21.4678,0.87982 -23.78155,0.52614 5.39907,6.15412 -17.99689,4.74777 4.88482,5.09874 -19.53939,13.53897 8.99838,0.5286 15.04029,-2.28607 -19.66799,9.84652 -6.29891,4.04342 -2.31392,6.68281 0.6427,6.15411 16.06873,-8.96898 -16.06873,10.90183 0.64273,5.62761 5.91331,0.87758 9.1271,-0.87758 -10.28407,12.13262 -4.11345,5.27428 -1.92832,7.03389 3.21376,5.09875 6.0418,0 8.35571,0 -8.35571,15.47181 -1.92817,10.37531 9.64116,-5.09878 -9.25556,6.50517 0.64273,6.15407 2.57106,5.62524 6.04177,-8.43791 -5.78484,7.38485 -2.31375,6.50518 0.38501,4.74762 3.34231,1.58192 2.82818,-0.17516 4.49924,2.4616 11.82638,-9.84657 -11.82638,9.3178 -2.57113,3.87021 -1.92811,1.75729 -0.64289,10.90184 5.78478,10.72629 8.61273,4.21901 1.02843,8.44023 5.39914,6.154 8.35572,1.93285 9.38404,-0.52614 6.6845,-3.34149 -1.54256,-9.84645 1.15697,9.67097 3.98497,4.39675 5.01347,0.87758 8.09861,-5.97632 7.71299,-6.50739 7.1987,5.80309 6.81305,-1.93508 7.58464,-2.63721 1.41309,-5.97851 5.39907,3.34143 6.81386,-1.93289 6.55551,-10.90183 6.04225,2.28611 6.29892,-9.31995 -9.51334,-22.33022 5.01417,-20.5728 11.31303,-34.98942 3.59937,-33.76074 -5.78572,-13.71456 8.99851,-7.91142 -17.2254,-13.1879 2.6996,-2.11068 -13.11278,-5.97852 3.59943,-6.50509 -17.61035,-2.63713 -14.52628,1.75726 z"
         style="fill:#493918;fill-opacity:1;fill-rule:evenodd;stroke:none" />
      <path
         inkscape:connector-curvature="0"
         id="path3545"
         d="m 556.24678,312.74812 -19.28233,0.87983 -21.4678,0.87982 -23.78155,0.52614 5.39907,6.15412 -17.99689,4.74777 4.88482,5.09874 -19.53939,13.53897 8.99838,0.5286 15.04029,-2.28607 -19.66799,9.84652 -6.29891,4.04342 -2.31392,6.68281 0.6427,6.15411 16.06873,-8.96898 -16.06873,10.90183 0.64273,5.62761 5.91331,0.87758 9.1271,-0.87758 -10.28407,12.13262 -4.11345,5.27428 -1.92832,7.03389 3.21376,5.09875 6.0418,0 8.35571,0 -8.35571,15.47181 -1.92817,10.37531 9.64116,-5.09878 -9.25556,6.50517 0.64273,6.15407 2.57106,5.62524 6.04177,-8.43791 -5.78484,7.38485 -2.31375,6.50518 0.38501,4.74762 3.34231,1.58192 2.82818,-0.17516 4.49924,2.4616 11.82638,-9.84657 -11.82638,9.3178 -2.57113,3.87021 -1.92811,1.75729 -0.64289,10.90184 5.78478,10.72629 8.61273,4.21901 1.02843,8.44023 5.39914,6.154 8.35572,1.93285 9.38404,-0.52614 6.6845,-3.34149 -1.54256,-9.84645 1.15697,9.67097 3.98497,4.39675 5.01347,0.87758 8.09861,-5.97632 7.71299,-6.50739 7.1987,5.80309 6.81305,-1.93508 7.58464,-2.63721 1.41309,-5.97851 5.39907,3.34143 6.81386,-1.93289 6.55551,-10.90183 6.04225,2.28611 6.29892,-9.31995 -9.51334,-22.33022 5.01417,-20.5728 11.31303,-34.98942 3.59937,-33.76074 -5.78572,-13.71456 8.99851,-7.91142 -17.2254,-13.1879 2.6996,-2.11068 -13.11278,-5.97852 3.59943,-6.50509 -17.61035,-2.63713 -14.52628,1.75726 z"
         style="fill:none;stroke:#493918;stroke-width:3.15719533px;stroke-linecap:butt;stroke-linejoin:round;stroke-miterlimit:4;stroke-dasharray:none;stroke-opacity:1" />
      <path
         inkscape:connector-curvature="0"
         id="path3547"
         d="m 506.75533,276.00145 c -7.32722,0 -13.24048,6.50512 -13.24048,14.59198 0,8.08922 5.91326,14.76983 13.24048,14.76983 7.32741,0 13.24054,-6.68061 13.24054,-14.76983 0,-8.08686 -5.91313,-14.59198 -13.24054,-14.59198 z"
         style="fill:url(#radialGradient4483);fill-opacity:1;fill-rule:evenodd;stroke:none" />
      <path
         inkscape:connector-curvature="0"
         id="path3549"
         d="m 506.75533,276.00145 c -7.32722,0 -13.24048,6.50512 -13.24048,14.59198 0,8.08922 5.91326,14.76983 13.24048,14.76983 7.32741,0 13.24054,-6.68061 13.24054,-14.76983 0,-8.08686 -5.91313,-14.59198 -13.24054,-14.59198"
         style="fill:none;stroke:#000000;stroke-width:2.40548253px;stroke-linecap:butt;stroke-linejoin:round;stroke-miterlimit:4;stroke-dasharray:none;stroke-opacity:1" />
      <path
         inkscape:connector-curvature="0"
         id="path3551"
         d="m 585.81382,275.12162 c -6.81387,0 -12.21289,6.50518 -12.21289,14.59433 0,8.08685 5.39902,14.59424 12.21289,14.59424 6.68386,0 12.21122,-6.50739 12.21122,-14.59424 0,-8.08915 -5.52736,-14.59433 -12.21122,-14.59433 z"
         style="fill:url(#radialGradient4491);fill-opacity:1;fill-rule:evenodd;stroke:none" />
      <path
         inkscape:connector-curvature="0"
         id="path3553"
         d="m 585.81382,275.12162 c -6.81387,0 -12.21289,6.50518 -12.21289,14.59433 0,8.08685 5.39902,14.59424 12.21289,14.59424 6.68386,0 12.21122,-6.50739 12.21122,-14.59424 0,-8.08915 -5.52736,-14.59433 -12.21122,-14.59433"
         style="fill:none;stroke:#000000;stroke-width:2.40548253px;stroke-linecap:butt;stroke-linejoin:round;stroke-miterlimit:4;stroke-dasharray:none;stroke-opacity:1" />
      <path
         inkscape:connector-curvature="0"
         id="path3555"
         d="m 605.13451,271.02986 -5.48258,-1.76902 -6.67506,-1.56324 -6.03079,1.45572 -5.17757,2.01109 -8.0461,4.04129 -8.48391,6.62087 2.38683,-4.14828 -5.50388,0.20792 -0.46173,-4.09416 0.47268,-2.79389 3.90394,-2.55023 4.59204,-2.89665 3.79215,-1.90465 2.98892,-1.50124 4.2946,-1.76407 3.18231,-1.40127 5.61251,-0.85255 4.48474,2.07348 3.33154,2.0631 6.81969,8.76644 z"
         style="fill:#4e3d1f;fill-opacity:1;fill-rule:evenodd;stroke:none" />
      <path
         inkscape:connector-curvature="0"
         id="path3557"
         d="m 605.82995,270.27087 -5.53738,-1.58805 -6.72251,-1.34321 -5.98004,1.65298 -5.10915,2.18004 -7.9099,4.30333 -8.26326,6.89591 2.25016,-4.22444 -5.49415,0.38854 -0.59511,-4.0768 0.38125,-2.80792 3.8186,-2.67706 4.49505,-3.04589 3.72793,-2.02815 2.93833,-1.59858 4.23473,-1.90413 3.13486,-1.50503 5.58168,-1.03639 4.55001,1.9251 3.39709,1.95261 7.10215,8.53778 z"
         style="fill:none;stroke:#000000;stroke-width:2.40548253px;stroke-linecap:butt;stroke-linejoin:round;stroke-miterlimit:4;stroke-dasharray:none;stroke-opacity:1" />
      <path
         inkscape:connector-curvature="0"
         id="path3559"
         d="m 489.41463,273.62195 5.82245,-2.45315 7.37686,-2.1599 6.45532,1.27151 5.75291,1.925 9.0829,3.94605 9.71073,6.7097 -2.82627,-4.4853 5.92974,-0.10648 0.44441,-4.59742 -0.7941,-3.02752 -4.3218,-2.64399 -5.21687,-2.84166 -4.24665,-1.84495 -3.42077,-1.48614 -4.73971,-1.67622 -3.60864,-1.37574 -6.14418,-0.37002 -4.85712,2.48857 -3.46843,2.51715 -6.93086,10.2107 z"
         style="fill:#4e3d1f;fill-opacity:1;fill-rule:evenodd;stroke:none" />
      <path
         inkscape:connector-curvature="0"
         id="path3561"
         d="m 488.7032,273.50048 5.81138,-2.47937 7.36713,-2.19312 6.46094,1.2424 5.76148,1.89906 9.10048,3.90507 9.74069,6.66587 -2.84632,-4.47252 5.92919,-0.13318 0.42381,-4.59938 -0.80765,-3.02392 -4.3336,-2.62447 -5.22955,-2.81813 -4.25487,-1.82579 -3.42738,-1.47073 -4.74718,-1.65485 -3.61478,-1.35944 -6.14577,-0.34232 -4.84591,2.51043 -3.45713,2.53274 -6.88505,10.24184 z"
         style="fill:none;stroke:#000000;stroke-width:2.40548253px;stroke-linecap:butt;stroke-linejoin:round;stroke-miterlimit:4;stroke-dasharray:none;stroke-opacity:1" />
      <path
         inkscape:connector-curvature="0"
         id="path3563"
         d="m 530.79401,312.74812 20.56795,0.87983 23.01047,0.87982 25.5806,0.52614 -5.78402,6.15412 19.28169,4.74777 -5.14078,5.09874 20.95301,13.53897 -25.83882,-1.7573 21.08301,9.8465 6.5555,6.15411 2.18465,10.37298 -17.3537,-8.61561 17.2254,10.90173 -0.77154,5.62758 -7.32706,0.52621 -8.87014,-0.52621 11.05637,12.13264 3.08449,5.27428 2.05634,4.04342 1.41473,2.99047 -0.12854,4.21891 -3.34277,0.87983 -6.55545,0 -8.87016,0 8.87016,15.47181 2.05629,10.37532 -10.28325,-5.0988 10.02659,6.50519 -0.77149,6.15407 -2.69954,5.62524 -6.55556,-8.43793 6.16898,7.38486 2.31452,5.62536 -0.25648,5.62754 -2.31458,1.93281 -4.24257,-0.5262 -4.11268,0.17517 -13.36936,-7.56034 12.72617,9.3177 2.69952,3.87019 2.05635,1.75742 0.77149,10.90177 -6.17061,10.72634 -9.38334,4.21891 -1.0282,8.44028 -5.78566,6.15406 -8.99839,1.93285 -10.02665,-0.52614 -7.19874,-3.34149 1.67139,-9.84651 -1.1565,9.67097 -4.37088,4.39681 -5.39906,0.87747 -8.74132,-5.97627 -8.22708,-6.50738 -7.71305,5.80309 -7.32735,-1.9351 -8.22707,-2.63713 -1.4141,-5.97864 -5.78465,3.34144 -7.32724,-1.93279 -6.94181,-10.90184 -6.55586,2.28613 -6.81316,-9.32001 10.15542,-22.33016 -5.27059,-20.57286 -12.21223,-34.98931 -3.85632,-33.7609 6.17026,-13.71446 -9.51269,-7.91142 18.38266,-13.18799 -2.95666,-2.11059 14.14039,-5.97856 -3.8565,-6.50503 18.89672,-2.63725 15.68296,1.75737 z"
         style="fill:#493918;fill-opacity:1;fill-rule:evenodd;stroke:none" />
      <path
         inkscape:connector-curvature="0"
         id="path3565"
         d="m 530.79401,312.74812 20.56795,0.87983 23.01047,0.87982 25.5806,0.52614 -5.78402,6.15412 19.28169,4.74777 -5.14078,5.09874 20.95301,13.53897 -25.83882,-1.7573 21.08301,9.8465 6.5555,6.15411 2.18465,10.37298 -17.3537,-8.61561 17.2254,10.90173 -0.77154,5.62758 -7.32706,0.52621 -8.87014,-0.52621 11.05637,12.13264 3.08449,5.27428 2.05634,4.04342 1.41473,2.99047 -0.12854,4.21891 -3.34277,0.87983 -6.55545,0 -8.87016,0 8.87016,15.47181 2.05629,10.37532 -10.28325,-5.0988 10.02659,6.50519 -0.77149,6.15407 -2.69954,5.62524 -6.55556,-8.43793 6.16898,7.38486 2.31452,5.62536 -0.25648,5.62754 -2.31458,1.93281 -4.24257,-0.5262 -4.11268,0.17517 -13.36936,-7.56034 12.72617,9.3177 2.69952,3.87019 2.05635,1.75742 0.77149,10.90177 -6.17061,10.72634 -9.38334,4.21891 -1.0282,8.44028 -5.78566,6.15406 -8.99839,1.93285 -10.02665,-0.52614 -7.19874,-3.34149 1.67139,-9.84651 -1.1565,9.67097 -4.37088,4.39681 -5.39906,0.87747 -8.74132,-5.97627 -8.22708,-6.50738 -7.71305,5.80309 -7.32735,-1.9351 -8.22707,-2.63713 -1.4141,-5.97864 -5.78465,3.34144 -7.32724,-1.93279 -6.94181,-10.90184 -6.55586,2.28613 -6.81316,-9.32001 10.15542,-22.33016 -5.27059,-20.57286 -12.21223,-34.98931 -3.85632,-33.7609 6.17026,-13.71446 -9.51269,-7.91142 18.38266,-13.18799 -2.95666,-2.11059 14.14039,-5.97856 -3.8565,-6.50503 18.89672,-2.63725 15.68296,1.75737 z"
         style="fill:none;stroke:#493918;stroke-width:3.15719533px;stroke-linecap:butt;stroke-linejoin:round;stroke-miterlimit:4;stroke-dasharray:none;stroke-opacity:1" />
      <path
         inkscape:connector-curvature="0"
         id="path3567"
         d="m 511.89728,334.9028 14.14057,0.5286 13.62613,1.93289 16.96852,-1.7573 15.55371,0.17568 -0.38502,6.50508 -1.41473,6.85836 -3.59938,7.91142 -4.49922,7.03388 -4.36998,5.45207 -3.98492,3.86794 -5.14211,4.04344 -5.39907,3.16594 -7.07011,1.7573 -6.04179,-0.52619 -6.1705,-3.51692 -3.72779,-3.69251 -3.8565,-7.56034 -1.79969,-7.20937 -1.28544,-7.38492 -0.89985,-9.31995 -0.64289,-8.26469 z"
         style="fill:#67381a;fill-opacity:1;fill-rule:evenodd;stroke:none" />
      <path
         inkscape:connector-curvature="0"
         id="path3569"
         d="m 511.89728,334.9028 14.14057,0.5286 13.62613,1.93289 16.96852,-1.7573 15.55371,0.17568 -0.38502,6.50508 -1.41473,6.85836 -3.59938,7.91142 -4.49922,7.03388 -4.36998,5.45207 -3.98492,3.86794 -5.14211,4.04344 -5.39907,3.16594 -7.07011,1.7573 -6.04179,-0.52619 -6.1705,-3.51692 -3.72779,-3.69251 -3.8565,-7.56034 -1.79969,-7.20937 -1.28544,-7.38492 -0.89985,-9.31995 -0.64289,-8.26469 z"
         style="fill:none;stroke:#000000;stroke-width:3.15719533px;stroke-linecap:butt;stroke-linejoin:round;stroke-miterlimit:4;stroke-dasharray:none;stroke-opacity:1" />
      <path
         inkscape:connector-curvature="0"
         id="path3571"
         d="m 513.05424,336.48691 4.37075,6.68057 4.49922,1.05537 8.22708,0.87983 7.58452,0.35087 8.74133,0.17517 7.58434,-0.52614 6.0418,-0.17518 6.42721,-0.52859 5.27076,-7.03394 -58.74701,-0.87753 z"
         style="fill:#ffffff;fill-opacity:1;fill-rule:evenodd;stroke:none" />
      <path
         inkscape:connector-curvature="0"
         id="path3573"
         d="m 513.05424,336.48691 4.37075,6.68057 4.49922,1.05537 8.22708,0.87983 7.58452,0.35087 8.74133,0.17517 7.58434,-0.52614 6.0418,-0.17518 6.42721,-0.52859 5.27076,-7.03394 -58.74701,-0.87753 z"
         style="fill:none;stroke:#000000;stroke-width:2.40548253px;stroke-linecap:butt;stroke-linejoin:round;stroke-miterlimit:4;stroke-dasharray:none;stroke-opacity:1" />
      <path
         inkscape:connector-curvature="0"
         id="path3575"
         d="m 520.51013,373.41132 3.4709,-4.92321 4.37057,-4.92326 5.78484,-3.16594 6.29885,-1.05532 6.55593,0 7.07026,2.63714 1.15697,5.10099 -2.69953,5.80089 -4.88483,4.04573 -3.85649,2.28381 -5.27059,1.93509 -7.45587,0 -5.14195,-2.11057 -5.39906,-5.62535 z"
         style="fill:#d6a098;fill-opacity:1;fill-rule:evenodd;stroke:none" />
      <path
         inkscape:connector-curvature="0"
         id="path3577"
         d="m 520.51013,373.41132 3.4709,-4.92321 4.37057,-4.92326 5.78484,-3.16594 6.29885,-1.05532 6.55593,0 7.07026,2.63714 1.15697,5.10099 -2.69953,5.80089 -4.88483,4.04573 -3.85649,2.28381 -5.27059,1.93509 -7.45587,0 -5.14195,-2.11057 -5.39906,-5.62535 z"
         style="fill:none;stroke:#000000;stroke-width:2.40548253px;stroke-linecap:butt;stroke-linejoin:round;stroke-miterlimit:4;stroke-dasharray:none;stroke-opacity:1" />
      <path
         inkscape:connector-curvature="0"
         id="path3579"
         d="m 585.55552,168.56791 c -4.75589,6.68146 6.94216,32.70461 26.09549,58.20003 19.28332,25.49538 38.69331,40.79261 43.45083,34.11115 4.75581,-6.68156 -6.94215,-32.70465 -26.22549,-58.20009 -19.15334,-25.49543 -38.69331,-40.79264 -43.32083,-34.11109 z"
         style="fill:#c59251;fill-opacity:1;fill-rule:evenodd;stroke:none" />
      <path
         inkscape:connector-curvature="0"
         id="path3581"
         d="m 585.55552,168.56791 c -4.75589,6.68146 6.94216,32.70461 26.09549,58.20003 19.28332,25.49538 38.69331,40.79261 43.45083,34.11115 4.75581,-6.68156 -6.94215,-32.70465 -26.22549,-58.20009 -19.15334,-25.49543 -38.69331,-40.79264 -43.32083,-34.11109"
         style="fill:none;stroke:#c59251;stroke-width:6.4647336px;stroke-linecap:butt;stroke-linejoin:round;stroke-miterlimit:4;stroke-dasharray:none;stroke-opacity:1" />
      <path
         inkscape:connector-curvature="0"
         id="path3583"
         d="m 530.79401,175.42532 c -40.74994,0 -73.65859,12.83557 -73.65859,28.83629 0,15.82483 32.90865,28.83619 73.65859,28.83619 40.62228,0 73.6583,-13.01136 73.6583,-28.83619 0,-16.00072 -33.03602,-28.83629 -73.6583,-28.83629 z"
         style="fill:#c59251;fill-opacity:1;fill-rule:evenodd;stroke:none" />
      <path
         inkscape:connector-curvature="0"
         id="path3585"
         d="m 530.79401,175.42532 c -40.74994,0 -73.65859,12.83557 -73.65859,28.83629 0,15.82483 32.90865,28.83619 73.65859,28.83619 40.62228,0 73.6583,-13.01136 73.6583,-28.83619 0,-16.00072 -33.03602,-28.83629 -73.6583,-28.83629"
         style="fill:none;stroke:#c59251;stroke-width:6.4647336px;stroke-linecap:butt;stroke-linejoin:round;stroke-miterlimit:4;stroke-dasharray:none;stroke-opacity:1" />
      <path
         inkscape:connector-curvature="0"
         id="path3587"
         d="m 556.24678,155.20463 c -24.80988,-5.80235 -47.43464,8.61572 -50.39129,32.17721 -2.95666,23.56123 14.91176,47.29836 39.85028,53.10082 24.81069,5.8024 47.43515,-8.61576 50.39129,-32.17699 2.82782,-23.56139 -14.91246,-47.29841 -39.85028,-53.10104 z"
         style="fill:#bea56e;fill-opacity:1;fill-rule:evenodd;stroke:none" />
      <path
         inkscape:connector-curvature="0"
         id="path3589"
         d="m 556.24678,155.20463 c -24.80988,-5.80235 -47.43464,8.61572 -50.39129,32.17721 -2.95666,23.56123 14.91176,47.29836 39.85028,53.10082 24.81069,5.8024 47.43515,-8.61576 50.39129,-32.17699 2.82782,-23.56139 -14.91246,-47.29841 -39.85028,-53.10104"
         style="fill:none;stroke:#bea56e;stroke-width:6.4647336px;stroke-linecap:butt;stroke-linejoin:round;stroke-miterlimit:4;stroke-dasharray:none;stroke-opacity:1" />
      <path
         inkscape:connector-curvature="0"
         id="path3591"
         d="m 586.32707,189.31605 c -11.95464,5.45065 -25.06735,-4.74752 -29.56604,-22.68235"
         style="fill:none;stroke:#000000;stroke-width:3.15719533px;stroke-linecap:butt;stroke-linejoin:round;stroke-miterlimit:4;stroke-dasharray:none;stroke-opacity:1" />
      <path
         inkscape:connector-curvature="0"
         id="path3593"
         d="m 630.80603,284.08834 -21.98286,-33.58327 -6.81215,0.52699 -6.55721,-10.02221 -9.76999,1.93399 -10.28319,3.16501 -8.35525,2.63735 -4.24263,2.28586 -5.27035,-1.05506 -0.77137,-5.45065 2.0568,-7.91231 -9.38404,11.42901 -4.24226,4.74731 -5.14195,1.75845 -4.37058,-1.75845 -2.95666,-4.21991 2.57088,-8.08821 1.67123,-4.92335 -5.01346,14.94582 -11.69799,-0.52787 -37.0221,10.54997 3.47073,-5.09905 -3.98497,5.45075 -6.42739,3.51665 -2.82818,-0.52781 -2.44236,-3.86808 0,-8.08833 5.27054,-9.84656 8.22708,-7.5606 -8.48421,7.0332 -5.5277,10.90136 -6.1702,0.52781 -6.55604,0.52698 -3.08514,-1.9342 -0.51412,-5.97805 3.8565,-10.02258 6.04178,-5.97809 4.37068,-4.39582 5.14201,-4.0441 7.32718,4.0441 -8.61279,-4.0441 1.92833,-7.91236 5.399,-4.5715 5.27049,-2.46165 7.1987,-2.46166 11.05531,4.3956 3.85644,1.58256 -12.85494,-4.57167 2.69953,-8.96736 4.37081,-7.9123 4.75634,-2.46161 4.49917,-2.10994 4.88482,0.70319 6.42738,0.35138 3.34242,2.98927 -1.02848,5.9781 0.77137,-3.86821 3.98503,-1.58255 4.62769,1.05516 7.58447,1.40649 -6.2989,-4.39586 -2.31394,-4.04405 6.17044,-0.87916 28.15148,3.86842 6.29892,8.96742 -7.32706,-11.95668 6.04225,-0.87916 6.04225,0.35139 4.37093,2.63757 6.04068,4.2199 4.37086,4.57155 5.27077,8.08832 2.31458,4.3956 5.14077,3.51676 8.0986,4.92321 5.01417,5.09899 4.88418,6.85747 3.59938,8.96742 3.47103,10.5499 0.89983,28.30901 -0.51354,10.19754 z"
         style="fill:#44361b;fill-opacity:1;fill-rule:evenodd;stroke:none" />
      <path
         inkscape:connector-curvature="0"
         id="path3595"
         d="m 630.80603,284.08834 -21.98286,-33.58327 -6.81215,0.52699 -6.55721,-10.02221 -9.76999,1.93399 -10.28319,3.16501 -8.35525,2.63735 -4.24263,2.28586 -5.27035,-1.05506 -0.77137,-5.45065 2.0568,-7.91231 -9.38404,11.42901 -4.24226,4.74731 -5.14195,1.75845 -4.37058,-1.75845 -2.95666,-4.21991 2.57088,-8.08821 1.67123,-4.92335 -5.01346,14.94582 -11.69799,-0.52787 -37.0221,10.54997 3.47073,-5.09905 -3.98497,5.45075 -6.42739,3.51665 -2.82818,-0.52781 -2.44236,-3.86808 0,-8.08833 5.27054,-9.84656 8.22708,-7.5606 -8.48421,7.0332 -5.5277,10.90136 -6.1702,0.52781 -6.55604,0.52698 -3.08514,-1.9342 -0.51412,-5.97805 3.8565,-10.02258 6.04178,-5.97809 4.37068,-4.39582 5.14201,-4.0441 7.32718,4.0441 -8.61279,-4.0441 1.92833,-7.91236 5.399,-4.5715 5.27049,-2.46165 7.1987,-2.46166 11.05531,4.3956 3.85644,1.58256 -12.85494,-4.57167 2.69953,-8.96736 4.37081,-7.9123 4.75634,-2.46161 4.49917,-2.10994 4.88482,0.70319 6.42738,0.35138 3.34242,2.98927 -1.02848,5.9781 0.77137,-3.86821 3.98503,-1.58255 4.62769,1.05516 7.58447,1.40649 -6.2989,-4.39586 -2.31394,-4.04405 6.17044,-0.87916 28.15148,3.86842 6.29892,8.96742 -7.32706,-11.95668 6.04225,-0.87916 6.04225,0.35139 4.37093,2.63757 6.04068,4.2199 4.37086,4.57155 5.27077,8.08832 2.31458,4.3956 5.14077,3.51676 8.0986,4.92321 5.01417,5.09899 4.88418,6.85747 3.59938,8.96742 3.47103,10.5499 0.89983,28.30901 -0.51354,10.19754 z"
         style="fill:none;stroke:#000000;stroke-width:2.40548253px;stroke-linecap:butt;stroke-linejoin:round;stroke-miterlimit:4;stroke-dasharray:none;stroke-opacity:1" />
      <path
         inkscape:connector-curvature="0"
         id="path3597"
         d="m 590.56963,134.80841 c -3.72768,0 -6.81379,4.92331 -6.81379,10.90142 0,5.97835 3.08611,10.7256 6.81379,10.7256 3.72773,0 6.81216,-4.74725 6.81216,-10.7256 0,-5.97811 -3.08443,-10.90142 -6.81216,-10.90142 z"
         style="fill:#000000;fill-opacity:1;fill-rule:evenodd;stroke:none" />
      <path
         inkscape:connector-curvature="0"
         id="path3599"
         d="m 590.56963,134.80841 c -3.72768,0 -6.81379,4.92331 -6.81379,10.90142 0,5.97835 3.08611,10.7256 6.81379,10.7256 3.72773,0 6.81216,-4.74725 6.81216,-10.7256 0,-5.97811 -3.08443,-10.90142 -6.81216,-10.90142"
         style="fill:none;stroke:#000000;stroke-width:2.40548253px;stroke-linecap:butt;stroke-linejoin:round;stroke-miterlimit:4;stroke-dasharray:none;stroke-opacity:1" />
      <path
         inkscape:connector-curvature="0"
         id="path3601"
         d="m 528.48024,120.03864 c -3.85649,0 -6.81314,4.92331 -6.81314,10.90137 0,5.97835 2.95665,10.72566 6.81314,10.72566 3.72781,0 6.68452,-4.74731 6.68452,-10.72566 0,-5.97806 -2.95671,-10.90137 -6.68452,-10.90137 z"
         style="fill:#000000;fill-opacity:1;fill-rule:evenodd;stroke:none" />
      <path
         inkscape:connector-curvature="0"
         id="path3603"
         d="m 528.48024,120.03864 c -3.85649,0 -6.81314,4.92331 -6.81314,10.90137 0,5.97835 2.95665,10.72566 6.81314,10.72566 3.72781,0 6.68452,-4.74731 6.68452,-10.72566 0,-5.97806 -2.95671,-10.90137 -6.68452,-10.90137"
         style="fill:none;stroke:#000000;stroke-width:2.40548253px;stroke-linecap:butt;stroke-linejoin:round;stroke-miterlimit:4;stroke-dasharray:none;stroke-opacity:1" />
      <path
         inkscape:connector-curvature="0"
         id="path3605"
         d="m 556.50384,171.2053 -8.61278,-17.40716 20.43912,3.69235 z"
         style="fill:#504f33;fill-opacity:1;fill-rule:evenodd;stroke:none" />
      <path
         inkscape:connector-curvature="0"
         id="path3607"
         d="m 556.50384,171.2053 -8.61278,-17.40716 20.43912,3.69235 z"
         style="fill:none;stroke:#000000;stroke-width:2.40548253px;stroke-linecap:butt;stroke-linejoin:miter;stroke-miterlimit:8;stroke-dasharray:none;stroke-opacity:1" />
      <path
         inkscape:connector-curvature="0"
         id="path3609"
         d="m 532.20805,549.06474 c -21.33908,0 -38.6932,53.80484 -38.6932,120.26894 0,66.28845 17.35412,120.09336 38.6932,120.09336 21.46784,0 38.6933,-53.80491 38.6933,-120.09336 0,-66.4641 -17.22546,-120.26894 -38.6933,-120.26894 z"
         style="fill:#bea56e;fill-opacity:1;fill-rule:evenodd;stroke:none" />
      <path
         inkscape:connector-curvature="0"
         id="path3611"
         d="m 532.20805,549.06474 c -21.33908,0 -38.6932,53.80484 -38.6932,120.26894 0,66.28845 17.35412,120.09336 38.6932,120.09336 21.46784,0 38.6933,-53.80491 38.6933,-120.09336 0,-66.4641 -17.22546,-120.26894 -38.6933,-120.26894"
         style="fill:none;stroke:#bea56e;stroke-width:6.4647336px;stroke-linecap:butt;stroke-linejoin:round;stroke-miterlimit:10;stroke-dasharray:none;stroke-opacity:1" />
      <path
         inkscape:connector-curvature="0"
         id="path3613"
         d="m 557.14663,170.85377 c -8.61275,12.83561 -24.2958,12.30816 -35.09394,-1.05506"
         style="fill:none;stroke:#000000;stroke-width:3.15719533px;stroke-linecap:butt;stroke-linejoin:round;stroke-miterlimit:10;stroke-dasharray:none;stroke-opacity:1" />
      <path
         inkscape:connector-curvature="0"
         id="path3615"
         d="m 404.30166,683.04808 14.39757,-27.42895"
         style="fill:none;stroke:#8e430b;stroke-width:3.15719533px;stroke-linecap:butt;stroke-linejoin:round;stroke-miterlimit:10;stroke-dasharray:none;stroke-opacity:1" />
      <path
         inkscape:connector-curvature="0"
         id="path3617"
         d="m 415.09986,705.55603 19.15368,-30.59491"
         style="fill:none;stroke:#8e430b;stroke-width:3.15719533px;stroke-linecap:butt;stroke-linejoin:round;stroke-miterlimit:10;stroke-dasharray:none;stroke-opacity:1" />
      <path
         inkscape:connector-curvature="0"
         id="path3619"
         d="m 629.00628,661.24674 14.39751,33.93403"
         style="fill:none;stroke:#8e430b;stroke-width:3.15719533px;stroke-linecap:butt;stroke-linejoin:round;stroke-miterlimit:10;stroke-dasharray:none;stroke-opacity:1" />
      <path
         inkscape:connector-curvature="0"
         id="path3621"
         d="M 632.47573,715.75362 615.63698,675.48769"
         style="fill:none;stroke:#8e430b;stroke-width:3.15719533px;stroke-linecap:butt;stroke-linejoin:round;stroke-miterlimit:10;stroke-dasharray:none;stroke-opacity:1" />
      <path
         style="fill:none;fill-rule:evenodd;stroke:#000000;stroke-width:1.00151157px;stroke-linecap:butt;stroke-linejoin:miter;stroke-opacity:1"
         d="m 519.71438,98.226951 -4.6159,0.609461 -7.5761,-25.583667 -4.7982,-12.158575 -1.26268,-1.519821 -9.5964,-7.852412 -7.5761,-3.039643 -10.60654,0 -9.5964,4.052858 -10.10147,12.411877 c 0,0 -7.82863,16.211431 -8.08118,16.718039 -0.25253,0.506606 -3.53551,20.770892 -3.53551,20.770892 l -1.76776,39.76868 4.29313,24.06385 7.57611,16.71803 -11.6167,40.02197 -2.52536,16.71804 -5.80835,36.47572 -0.75761,11.65196 0.50507,23.55725 3.28298,30.90303 4.04058,25.07707 3.28299,15.95812 8.33371,29.88982 6.56596,15.19822 9.84892,21.78412 0,4.55946 0.50508,2.02643 1.76776,1.01321 -8.83879,16.46474 -4.79819,8.61232 -12.37431,38.75545 -23.73845,68.13867 -8.08118,19.25108 -8.58625,18.74446 -3.28298,6.33259 -1.51522,14.69162 1.26269,12.15857 -1.26269,9.87883 2.77791,12.41188 3.28298,5.82599 4.54566,6.58589 4.7982,9.37224 c 0,0 -1.01015,-2.02643 0.25254,0 1.26268,2.02643 10.10147,11.90527 10.10147,11.90527 l 8.33371,7.0925 9.34385,3.79955 3.78805,-10.89205 5.55581,-18.49117 13.63699,-50.91402 16.41488,-62.56599 -33.83992,125.13198 -2.02029,8.10572 -3.03044,34.19598 0,5.31939 4.04059,31.40963 9.09132,47.11448 7.5761,38.50214 2.7779,15.70483 1.76776,33.94269 -4.54566,27.86339 4.29312,25.07707 0.50508,2.02642 13.13191,8.35899 9.59639,0.75991 11.61669,0.25338 17.67758,-2.02648 9.34386,-22.54401 0.25254,-46.86118 1.26268,-13.17178 -0.75762,-18.23786 -1.26268,-29.12992 2.77791,-15.70483 4.04059,-2.02642 -0.75761,49.3942 -4.15599,19.89574 -1.24999,56.77873 13.03564,16.12015 29.64269,12.17965 21.78559,-10.20942 3.0357,-18.62771 -2.32141,-39.22569 9.10709,-40.83769 2.32142,-8.95563 3.74997,-30.27006 0.53572,-31.70295 -3.92855,-18.44861 5.17853,-20.23973 0.89285,-18.80683 -0.71428,-16.47838 -7.1428,-85.25764 -12.32137,-61.43566 -9.10709,-36.89721 9.82137,40.12124 8.03567,39.22568 4.28569,23.64288 4.2857,55.34583 2.32141,24.89666 7.8571,-2.86579 8.39281,-7.52274 13.57134,-23.82199 5.89284,-17.19482 0.71428,-13.25435 -0.89286,-9.8512 -3.21427,-17.37392 -13.03564,-28.65804 -15.89277,-59.64453 -11.96421,-45.31551 18.03561,-19.88152 13.57136,-23.28465 9.10708,-21.85174 6.24997,-28.47892 4.82141,-28.47892 1.7857,-24.00111 1.25,-22.03086 0.35713,-14.1499 -0.53572,-17.37393 -0.35714,-13.25435 -1.78569,-10.38853 -3.74998,-21.67263 6.0714,-2.86581 5.71425,-6.62717 9.99993,-30.09094 4.10713,-17.0157 -1.60714,-40.47948 -6.24996,-21.31441 -7.49996,-16.83658 -8.92852,-10.03032 -10.35708,-6.9854 -9.99995,-0.71644 -12.49992,6.26894 -9.10711,13.61256 -3.03569,10.20943 -3.39284,-12.17967 -4.28569,-9.8512 c 0,0 -21.60702,-22.03086 -12.49993,-10.92587 9.10709,11.10499 -6.24996,-7.34362 -6.24996,-7.34362 l -9.10709,-5.01516 -14.82135,-4.656933 -9.82137,-1.612012 -13.57136,0 z"
         id="path3623"
         inkscape:connector-curvature="0" />
      <path
         style="fill:none;fill-rule:evenodd;stroke:#000000;stroke-width:1.00151157px;stroke-linecap:butt;stroke-linejoin:miter;stroke-opacity:1"
         d="m 616.11318,676.62196 18.18264,42.3017 c 0,0 -18.43518,-42.555 -18.18264,-42.3017 z"
         id="path3625"
         inkscape:connector-curvature="0" />
      <path
         style="fill:none;fill-rule:evenodd;stroke:#000000;stroke-width:1.00151157px;stroke-linecap:butt;stroke-linejoin:miter;stroke-opacity:1"
         d="m 651.59459,715.63072 0.12627,0.5066 z"
         id="path3627"
         inkscape:connector-curvature="0" />
      <path
         style="fill:none;fill-rule:evenodd;stroke:#000000;stroke-width:1.00151157px;stroke-linecap:butt;stroke-linejoin:miter;stroke-opacity:1"
         d="M 629.49763,661.55039 644.7761,696.7596 Z"
         id="path3629"
         inkscape:connector-curvature="0" />
      <path
         style="fill:none;fill-rule:evenodd;stroke:#000000;stroke-width:1.00151157px;stroke-linecap:butt;stroke-linejoin:miter;stroke-opacity:1"
         d="M 651.97339,716.01066 Z"
         id="path3631"
         inkscape:connector-curvature="0" />
      <path
         style="fill:none;fill-rule:evenodd;stroke:#000000;stroke-width:1.00151157px;stroke-linecap:butt;stroke-linejoin:miter;stroke-opacity:1"
         d="m 418.37692,656.35767 -15.65729,29.38322 z"
         id="path3633"
         inkscape:connector-curvature="0" />
      <path
         style="fill:none;fill-rule:evenodd;stroke:#000000;stroke-width:1.00151157px;stroke-linecap:butt;stroke-linejoin:miter;stroke-opacity:1"
         d="m 433.78165,675.86205 -18.81399,30.01648 z"
         id="path3635"
         inkscape:connector-curvature="0" />
      <path
         style="fill:none;fill-rule:evenodd;stroke:#000000;stroke-width:1.00151157px;stroke-linecap:butt;stroke-linejoin:miter;stroke-opacity:1"
         d="m 631.77045,284.63462 0.88389,-11.90527 -0.63135,-16.59139 -0.50507,-11.0187 -4.29312,-12.91849 -2.90417,-6.71255 -3.15672,-4.43281 -2.14656,-2.78635 -4.54567,-5.06606 -13.25816,-8.48568 -7.32358,-11.77861 -4.67192,-5.06608 -11.11162,-7.3458 -6.31342,-0.37995 -6.06088,1.01321 -3.03045,0.75991 9.59641,13.29844 -8.33372,-11.77862 -18.30891,-2.15307 -11.99549,-0.25331 -1.51522,-0.12665 -0.75763,0.63325 -0.12626,1.13988 0.88389,1.51982 1.64148,2.91298 2.27283,1.39318 -7.1973,-1.51983 -2.52537,1.01322 -1.26268,6.20593 1.38896,-6.07927 -0.37881,-1.13988 -3.91432,-3.54625 -5.68208,0 -6.06088,-1.13986 -9.84893,5.06607 -4.67193,8.48567 -2.65164,7.34581 13.76325,6.58589 -13.51071,-6.3326 -1.26269,-1.13986 -12.75309,5.19272 -6.31343,5.19273 -2.02029,8.61232 9.97519,3.67291 -9.97519,-3.67291 -3.78805,3.29296 -10.22774,10.38543 -3.91432,10.25881 0.25254,6.8392 3.78805,2.65968 12.50057,-1.01322 3.28297,-6.96584 3.66179,-5.69933 7.5761,-6.58589 -7.44982,6.58589 -3.91433,6.07928 -3.15671,6.45924 0,6.45925 2.90417,4.68611 3.66178,1.01322 7.1973,-4.05285 4.29312,-6.0793 -4.16685,6.0793 36.99663,-10.63876 11.74296,0.5066 5.80834,-16.08477 -5.55581,15.95813 0.63135,-0.25332 1.64149,2.40639 4.7982,2.02643 6.06088,-1.64647 10.73281,-12.79183 -0.75762,3.03964 0.50508,6.45925 6.81849,1.77312 4.41939,-2.53304 17.55131,-5.69933 9.9752,-1.89978 5.68207,9.24558 1.26269,0.63327 6.18715,-0.50661 15.53101,23.68388 5.93461,8.99229 1.38896,0.88655 z"
         id="path3637"
         inkscape:connector-curvature="0" />
    </g>
  </g>
</svg>
